<?xml version="1.0" encoding="UTF-8" standalone="no"?><!DOCTYPE svg PUBLIC "-//W3C//DTD SVG 1.1//EN" "http://www.w3.org/Graphics/SVG/1.1/DTD/svg11.dtd"><svg width="100%" height="100%" viewBox="0 0 100 100" version="1.1" xmlns="http://www.w3.org/2000/svg" xmlns:xlink="http://www.w3.org/1999/xlink" xml:space="preserve" xmlns:serif="http://www.serif.com/" style="fill-rule:evenodd;clip-rule:evenodd;stroke-linejoin:round;stroke-miterlimit:2;"><circle cx="50" cy="50" r="50" style="fill:#008feb;"/><path d="M62.581,52.986c0,0.252 -0.008,0.499 -0.021,0.744c0,0.018 -0.003,0.036 -0.003,0.053c-0.005,0.1 -0.012,0.198 -0.02,0.297c-0.003,0.034 -0.005,0.068 -0.008,0.102c-0.01,0.091 -0.018,0.18 -0.028,0.27c-0.006,0.041 -0.008,0.082 -0.013,0.122c-0.011,0.085 -0.024,0.17 -0.034,0.255c-0.008,0.043 -0.013,0.087 -0.018,0.13c-0.013,0.082 -0.026,0.163 -0.041,0.244c-0.008,0.045 -0.016,0.09 -0.024,0.134c-0.012,0.08 -0.028,0.158 -0.046,0.236c-0.008,0.046 -0.018,0.091 -0.026,0.136c-0.018,0.077 -0.034,0.153 -0.052,0.23c-0.01,0.045 -0.02,0.089 -0.033,0.134c-0.018,0.076 -0.036,0.151 -0.057,0.225c-0.01,0.044 -0.023,0.088 -0.036,0.132c-0.021,0.074 -0.042,0.149 -0.062,0.222c-0.013,0.043 -0.026,0.085 -0.039,0.127c-0.023,0.074 -0.047,0.148 -0.07,0.221c-0.015,0.04 -0.028,0.08 -0.041,0.121c-0.026,0.073 -0.052,0.147 -0.078,0.22c-0.013,0.037 -0.028,0.074 -0.041,0.111c-0.028,0.075 -0.057,0.15 -0.085,0.224c-0.013,0.03 -0.026,0.059 -0.036,0.088c-0.034,0.081 -0.068,0.161 -0.101,0.241l0,0.002c-0.124,0.285 -0.256,0.562 -0.398,0.832c-0.016,0.031 -0.031,0.063 -0.049,0.094c-0.031,0.063 -0.067,0.125 -0.101,0.187c-0.023,0.039 -0.044,0.079 -0.065,0.118c-0.033,0.058 -0.067,0.115 -0.1,0.172c-0.026,0.042 -0.05,0.085 -0.075,0.126c-0.034,0.055 -0.068,0.108 -0.101,0.162c-0.026,0.044 -0.054,0.088 -0.083,0.131c-0.031,0.051 -0.064,0.102 -0.098,0.153c-0.031,0.045 -0.059,0.089 -0.09,0.134c-0.034,0.048 -0.068,0.096 -0.101,0.144c-0.031,0.046 -0.062,0.091 -0.096,0.136c-0.031,0.046 -0.064,0.092 -0.098,0.138c-0.034,0.045 -0.07,0.091 -0.103,0.136c-0.034,0.044 -0.065,0.087 -0.099,0.131c-0.036,0.046 -0.072,0.092 -0.108,0.138c-0.034,0.041 -0.067,0.082 -0.101,0.123c-0.039,0.047 -0.077,0.094 -0.116,0.141c-0.031,0.038 -0.062,0.076 -0.096,0.114c-0.041,0.049 -0.085,0.098 -0.126,0.146c-0.031,0.034 -0.06,0.068 -0.091,0.102c-0.046,0.053 -0.096,0.105 -0.145,0.158c-0.025,0.028 -0.051,0.056 -0.077,0.085c-0.057,0.061 -0.116,0.122 -0.173,0.182c-0.018,0.018 -0.036,0.036 -0.052,0.054c-0.227,0.231 -0.46,0.452 -0.695,0.665c-0.279,0.249 -0.53,0.524 -0.749,0.818l0,4.55c2.597,0.665 5.018,1.763 7.186,3.213c0.127,-0.378 0.194,-0.779 0.194,-1.191l0,-20.813l0,-0.001l0.002,0l0,-3.848l-2.183,0l0,7.549Z" style="fill:#4c0000;fill-rule:nonzero;"/><path d="M64.764,45.117l-0.002,0c0,0.075 0.002,0.15 0.002,0.225l0,-0.225Z" style="fill:#4c0000;fill-rule:nonzero;"/><path d="M49.999,81.11c-2.729,-1.891 -4.946,-4.065 -6.29,-6.719l0,3.411c0,1.402 0.359,2.779 1.041,4.004c0.683,1.223 1.039,2.601 1.039,4.003l0,8.932c0,0 -10.553,-0.789 -10.553,-10.361l0,-12.957c-6.179,4.224 -10.236,11.326 -10.236,19.376l0,9.201l24.999,0l0,-18.89Z" style="fill:#e8e9ea;fill-rule:nonzero;"/><path d="M64.568,71.29c-2.168,-1.45 -4.589,-2.548 -7.186,-3.213l0,3.264c-0.907,4.11 -3.673,7.2 -7.383,9.769l0,18.89l25.001,0l0,-9.201c0,-8.135 -4.142,-15.302 -10.432,-19.509Z" style="fill:#cfd0d2;fill-rule:nonzero;"/><path d="M49.999,66.457c-1.468,0 -3.933,-0.761 -6.29,-2.329l0,10.263c1.344,2.654 3.561,4.828 6.29,6.719l0,-14.653Z" style="fill:#e9cc9c;fill-rule:nonzero;"/><path d="M57.382,63.338c-2.66,2.101 -5.683,3.118 -7.383,3.118l0,14.654c3.71,-2.569 6.476,-5.659 7.383,-9.769l0,-3.264l0,-4.55l0,-0.189Z" style="fill:#eaba8b;fill-rule:nonzero;"/><path d="M49.999,66.456c1.7,0 4.723,-1.017 7.383,-3.118c0.498,-0.393 0.981,-0.824 1.444,-1.294c0.016,-0.018 0.034,-0.036 0.052,-0.054c0.057,-0.06 0.116,-0.121 0.173,-0.182c0.026,-0.029 0.052,-0.057 0.077,-0.085c0.049,-0.053 0.099,-0.105 0.145,-0.158c0.031,-0.034 0.06,-0.068 0.091,-0.102c0.041,-0.048 0.085,-0.097 0.126,-0.146c0.034,-0.038 0.065,-0.076 0.096,-0.114c0.039,-0.047 0.077,-0.094 0.116,-0.141c0.034,-0.041 0.067,-0.082 0.101,-0.123c0.036,-0.046 0.072,-0.092 0.108,-0.138c0.034,-0.044 0.065,-0.087 0.099,-0.131c0.033,-0.045 0.069,-0.091 0.103,-0.136c0.034,-0.046 0.067,-0.092 0.098,-0.138c0.034,-0.045 0.065,-0.09 0.096,-0.136c0.033,-0.048 0.067,-0.096 0.101,-0.144c0.031,-0.045 0.059,-0.089 0.09,-0.134c0.034,-0.051 0.067,-0.102 0.098,-0.153c0.029,-0.043 0.057,-0.087 0.083,-0.131c0.033,-0.054 0.067,-0.107 0.101,-0.162c0.025,-0.041 0.049,-0.084 0.075,-0.126c0.033,-0.057 0.067,-0.114 0.1,-0.172c0.021,-0.039 0.042,-0.079 0.065,-0.118c0.034,-0.062 0.07,-0.124 0.101,-0.187c0.018,-0.031 0.033,-0.063 0.049,-0.094c0.142,-0.27 0.274,-0.547 0.398,-0.832l0,-0.002c0.033,-0.08 0.067,-0.16 0.101,-0.241c0.01,-0.029 0.023,-0.058 0.036,-0.088c0.028,-0.074 0.057,-0.149 0.085,-0.224c0.013,-0.037 0.028,-0.074 0.041,-0.111c0.026,-0.073 0.052,-0.147 0.078,-0.22c0.013,-0.041 0.026,-0.081 0.041,-0.121c0.023,-0.073 0.047,-0.147 0.07,-0.221c0.013,-0.042 0.026,-0.084 0.039,-0.127c0.02,-0.073 0.041,-0.148 0.062,-0.222c0.013,-0.044 0.026,-0.088 0.036,-0.132c0.021,-0.074 0.039,-0.149 0.057,-0.225c0.013,-0.045 0.023,-0.089 0.033,-0.134c0.018,-0.077 0.034,-0.153 0.052,-0.23c0.008,-0.045 0.018,-0.09 0.026,-0.136c0.018,-0.078 0.034,-0.156 0.046,-0.236c0.008,-0.044 0.016,-0.089 0.024,-0.134c0.015,-0.081 0.028,-0.162 0.041,-0.244c0.005,-0.043 0.01,-0.087 0.018,-0.13c0.01,-0.085 0.023,-0.17 0.034,-0.255c0.005,-0.04 0.007,-0.081 0.013,-0.122c0.01,-0.09 0.018,-0.179 0.028,-0.27c0.003,-0.034 0.005,-0.068 0.008,-0.102c0.008,-0.099 0.015,-0.197 0.02,-0.297c0,-0.017 0.003,-0.035 0.003,-0.053c0.013,-0.245 0.021,-0.492 0.021,-0.744l0,-7.549l-12.582,0l0,21.019Z" style="fill:#fed1a2;fill-rule:nonzero;"/><path d="M49.999,66.457l0,-0.001l0,-21.019l-12.582,0l0,7.549c0,0.067 0,0.134 0.002,0.2c0.067,4.706 2.535,8.109 5.373,10.289c0.302,0.233 0.609,0.451 0.917,0.653c2.357,1.568 4.822,2.329 6.29,2.329Z" style="fill:#ffdfb4;fill-rule:nonzero;"/><path d="M45.789,94.741l0,-8.932c0,-1.402 -0.356,-2.78 -1.039,-4.003c-0.682,-1.225 -1.041,-2.602 -1.041,-4.004l0,-3.411l0,-2.149l0,0l0,-8.114c-0.308,-0.202 -0.615,-0.42 -0.917,-0.653c-2.838,-2.18 -5.306,-5.583 -5.373,-10.289c-0.002,-0.066 -0.002,-0.133 -0.002,-0.2l0,-3.701l0,-3.848l-2.181,0l0,38.943c0,9.572 10.553,10.361 10.553,10.361Z" style="fill:#580000;fill-rule:nonzero;"/><path d="M37.417,45.437l12.582,0l0,-10.41l0,-4.528l-2.564,0c-6.765,0 -12.238,6.702 -12.199,14.938l2.181,0Z" style="fill:#690004;fill-rule:nonzero;"/><path d="M49.999,35.027l0,10.41l14.765,0l0,-0.09l0,-0.005c0,-0.075 -0.002,-0.15 -0.002,-0.225c-0.101,-8.094 -5.523,-14.618 -12.197,-14.618l-2.566,0l0,4.528Z" style="fill:#5c0000;fill-rule:nonzero;"/></svg>