<?xml version="1.0" encoding="UTF-8" standalone="no"?><!DOCTYPE svg PUBLIC "-//W3C//DTD SVG 1.1//EN" "http://www.w3.org/Graphics/SVG/1.1/DTD/svg11.dtd"><svg width="100%" height="100%" viewBox="0 0 100 100" version="1.1" xmlns="http://www.w3.org/2000/svg" xmlns:xlink="http://www.w3.org/1999/xlink" xml:space="preserve" xmlns:serif="http://www.serif.com/" style="fill-rule:evenodd;clip-rule:evenodd;stroke-linejoin:round;stroke-miterlimit:2;"><circle cx="50" cy="50" r="50" style="fill:#008fff;"/><path d="M50.067,97.585l-0.002,-0.003l-0.001,0.003l0,-0.004l-11.385,-14.161l4.049,-3.149l-4.023,-0.033l0.052,-6.478c-0.332,-0.088 -0.661,-0.19 -0.985,-0.306c-0.077,-0.028 -0.152,-0.057 -0.225,-0.09c-0.978,-0.426 -1.706,-1.25 -2.026,-2.239c-6.242,4.155 -10.381,11.229 -10.447,19.293l-0.074,9.177l49.865,0.405l0.002,-0.202l-24.8,0l0,-2.213Z" style="fill:#a31623;fill-rule:nonzero;"/><path d="M57.428,71.214c-0.017,0.077 -0.035,0.153 -0.054,0.23l0.081,-0.289l-0.026,-3.196c0,0 0,0 -0.001,0l0,3.255Z" style="fill:#7a0410;fill-rule:nonzero;"/><path d="M64.598,71.164c-0.145,-0.097 -0.291,-0.191 -0.438,-0.285c-0.052,-0.033 -0.104,-0.065 -0.155,-0.097c-0.097,-0.061 -0.194,-0.121 -0.291,-0.18c-0.061,-0.037 -0.122,-0.073 -0.183,-0.109c-0.09,-0.053 -0.18,-0.107 -0.271,-0.159c-0.064,-0.037 -0.128,-0.073 -0.192,-0.109c-0.09,-0.051 -0.181,-0.101 -0.272,-0.151c-0.064,-0.035 -0.128,-0.069 -0.192,-0.104c-0.095,-0.05 -0.191,-0.1 -0.287,-0.15c-0.06,-0.031 -0.12,-0.062 -0.18,-0.093c-0.108,-0.054 -0.217,-0.108 -0.326,-0.161c-0.049,-0.023 -0.097,-0.047 -0.146,-0.071c-0.067,-0.032 -0.134,-0.062 -0.201,-0.093l0.088,10.836l-4.023,0.033l4.049,3.149l-11.511,14.165l0,2.213l24.933,0l0,-9.177c0,-8.112 -4.129,-15.261 -10.402,-19.457Z" style="fill:#7a0410;fill-rule:nonzero;"/><path d="M57.048,72.573l-6.981,25.001l0,0.011l7.044,-25.199c-0.02,0.063 -0.042,0.125 -0.063,0.187Z" style="fill:#7a0410;fill-rule:nonzero;"/><path d="M50.066,66.342c-1.658,0 -4.579,-0.97 -7.188,-2.973c-0.058,-0.045 -0.116,-0.092 -0.174,-0.137l0,0.19c0.685,0.916 1.082,2.027 1.087,3.186l0,5.117l6.275,2.947l0,-8.33Z" style="fill:#e9cc9c;fill-rule:nonzero;"/><path d="M50.067,66.342l-0.001,0l0,0l0,8.33l7.362,-3.458l-0.38,1.359c0.021,-0.062 0.043,-0.124 0.063,-0.187l0.263,-0.942c0.019,-0.077 0.037,-0.153 0.054,-0.23l0,-3.255l0,-0.001l0,-4.537l0,-0.188c-2.65,2.095 -5.666,3.109 -7.361,3.109Z" style="fill:#eaba8b;fill-rule:nonzero;"/><path d="M43.528,74.167l-1.647,0c-1.062,0 -2.111,-0.139 -3.124,-0.407l-0.052,6.478l4.023,0.033l-4.049,3.149l11.385,14.161l0,-0.007l-6.536,-23.407Z" style="fill:#d22233;fill-rule:nonzero;"/><path d="M50.065,97.582l0.002,0.003l-0.001,-0.006l-0.001,0.003Z" style="fill:#d22233;fill-rule:nonzero;"/><path d="M57.429,67.958l0,0.001l0.026,3.196l-0.081,0.289l-0.263,0.942l-7.044,25.199l11.511,-14.165l-4.049,-3.149l4.023,-0.033l-0.088,-10.836l0,-0.001c-1.286,-0.598 -2.635,-1.085 -4.035,-1.443Z" style="fill:#a31623;fill-rule:nonzero;"/><path d="M50.066,97.579l0.001,0.006l0,-0.011l-0.001,0.005Z" style="fill:#e8e9ea;fill-rule:nonzero;"/><path d="M46.386,79.076l-2.24,-2.699l-0.618,-2.21l6.536,23.407c0,-0.429 0.002,-14.049 0.002,-22.127l0,-0.775l-3.68,4.404Z" style="fill:#e8e9ea;fill-rule:nonzero;"/><path d="M50.067,97.574l6.981,-25.001l0.38,-1.359l-3.682,7.862l-3.68,-4.404l0,0.775c0,8.078 -0.002,21.698 -0.002,22.127l0,0.011l0.001,-0.003l0.001,-0.003l0.001,-0.005Z" style="fill:#cfd0d2;fill-rule:nonzero;"/><path d="M50.066,66.342" style="fill:#fed1a2;fill-rule:nonzero;"/><path d="M50.067,66.342c1.695,0 4.711,-1.014 7.361,-3.109c0.497,-0.393 0.981,-0.823 1.44,-1.291c0.019,-0.019 0.037,-0.039 0.055,-0.058c0.057,-0.059 0.115,-0.118 0.171,-0.178c0.027,-0.029 0.053,-0.058 0.08,-0.087c0.047,-0.051 0.094,-0.102 0.141,-0.155c0.031,-0.034 0.061,-0.069 0.092,-0.103c0.042,-0.048 0.084,-0.096 0.125,-0.145c0.033,-0.038 0.064,-0.076 0.097,-0.114c0.038,-0.046 0.077,-0.093 0.115,-0.14c0.033,-0.041 0.067,-0.082 0.1,-0.124c0.035,-0.045 0.071,-0.09 0.106,-0.136c0.034,-0.043 0.068,-0.088 0.102,-0.132c0.033,-0.044 0.067,-0.089 0.1,-0.134c0.034,-0.046 0.067,-0.092 0.101,-0.139c0.031,-0.044 0.063,-0.089 0.094,-0.134c0.034,-0.048 0.068,-0.097 0.101,-0.146c0.029,-0.043 0.059,-0.087 0.088,-0.131c0.033,-0.051 0.067,-0.102 0.1,-0.154c0.028,-0.043 0.055,-0.087 0.082,-0.13c0.033,-0.054 0.067,-0.107 0.1,-0.161c0.025,-0.042 0.049,-0.084 0.074,-0.126c0.034,-0.057 0.068,-0.115 0.1,-0.173c0.022,-0.038 0.043,-0.077 0.065,-0.115c0.034,-0.063 0.069,-0.125 0.103,-0.189c0.015,-0.029 0.03,-0.059 0.046,-0.088c0.141,-0.271 0.275,-0.549 0.398,-0.835c0,-0.001 0,-0.002 0.001,-0.002c0.034,-0.08 0.067,-0.161 0.1,-0.241c0.011,-0.029 0.023,-0.058 0.035,-0.087c0.029,-0.074 0.058,-0.15 0.086,-0.225c0.013,-0.036 0.027,-0.073 0.041,-0.109c0.026,-0.073 0.051,-0.147 0.077,-0.221c0.013,-0.04 0.027,-0.079 0.04,-0.119c0.025,-0.073 0.048,-0.147 0.07,-0.221c0.013,-0.042 0.027,-0.084 0.039,-0.126c0.022,-0.074 0.043,-0.148 0.064,-0.223c0.012,-0.043 0.024,-0.086 0.035,-0.13c0.02,-0.075 0.039,-0.15 0.058,-0.226c0.01,-0.044 0.021,-0.088 0.031,-0.132c0.018,-0.077 0.035,-0.153 0.052,-0.231c0.009,-0.044 0.019,-0.089 0.028,-0.134c0.015,-0.078 0.031,-0.157 0.045,-0.236c0.008,-0.044 0.016,-0.089 0.024,-0.133c0.013,-0.081 0.027,-0.163 0.039,-0.245c0.007,-0.042 0.012,-0.085 0.018,-0.128c0.012,-0.085 0.024,-0.17 0.034,-0.256c0.005,-0.039 0.009,-0.079 0.013,-0.119c0.01,-0.09 0.02,-0.18 0.028,-0.272c0.003,-0.033 0.005,-0.066 0.008,-0.099c0.008,-0.099 0.016,-0.198 0.022,-0.298c0.001,-0.017 0.001,-0.033 0.002,-0.05c0.013,-0.244 0.021,-0.492 0.021,-0.744l0,-3.691l-0.008,0l0,-3.383c-0.079,-2.273 -1.268,-5.103 -3.709,-7.108c-0.423,1.512 -1.418,3.834 -3.731,5.631c-1.407,1.092 -3.294,1.662 -5.1,1.948l0,20.037Z" style="fill:#fed1a2;fill-rule:nonzero;"/><path d="M37.518,52.907c0,0.445 0.021,0.878 0.063,1.3c0.001,0.019 0.004,0.038 0.005,0.057c0.012,0.115 0.025,0.229 0.04,0.343c0.004,0.029 0.008,0.059 0.012,0.088c0.014,0.105 0.03,0.21 0.047,0.314c0.004,0.028 0.009,0.055 0.013,0.083c0.02,0.115 0.041,0.23 0.063,0.343c0.003,0.013 0.005,0.026 0.007,0.039c0.053,0.261 0.113,0.518 0.181,0.769c0.004,0.015 0.008,0.03 0.012,0.045c0.029,0.107 0.06,0.213 0.091,0.319c0.008,0.024 0.015,0.048 0.023,0.072c0.03,0.099 0.062,0.198 0.095,0.296c0.007,0.021 0.014,0.043 0.022,0.065c0.038,0.111 0.077,0.221 0.118,0.33c0.002,0.006 0.004,0.011 0.006,0.016c0.089,0.237 0.185,0.469 0.287,0.696c0.007,0.016 0.015,0.033 0.022,0.049c0.043,0.094 0.086,0.186 0.131,0.278c0.011,0.023 0.022,0.046 0.033,0.068c0.044,0.089 0.088,0.178 0.134,0.265c0.01,0.019 0.02,0.039 0.03,0.058c0.055,0.104 0.111,0.207 0.168,0.309c0.001,0 0.001,0 0.001,0.001c0.119,0.211 0.243,0.417 0.372,0.618c0.012,0.019 0.024,0.037 0.037,0.056c0.051,0.08 0.104,0.159 0.157,0.237c0.015,0.022 0.03,0.044 0.045,0.066c0.053,0.078 0.108,0.155 0.163,0.231c0.012,0.018 0.025,0.035 0.038,0.053c0.138,0.19 0.281,0.376 0.427,0.557c0.004,0.005 0.008,0.01 0.012,0.015c0.067,0.083 0.135,0.164 0.204,0.245c0.016,0.019 0.032,0.037 0.048,0.056c0.058,0.068 0.117,0.135 0.177,0.202c0.017,0.02 0.036,0.04 0.053,0.06c0.062,0.068 0.124,0.136 0.187,0.202c0.014,0.015 0.028,0.031 0.042,0.045c0.157,0.166 0.316,0.327 0.478,0.483c0.01,0.01 0.02,0.019 0.03,0.029c0.07,0.066 0.139,0.132 0.209,0.196c0.02,0.018 0.039,0.036 0.059,0.054c0.276,0.252 0.558,0.49 0.844,0.717c0.058,0.045 0.116,0.092 0.174,0.137c2.609,2.003 5.53,2.973 7.188,2.973l0.001,0l0,-20.037l-0.001,0c-2.999,0.474 -5.776,0.169 -5.776,0.169l1.232,-2.235c-3.205,1.838 -7.986,1.841 -8.004,1.841l0,6.827Z" style="fill:#ffdfb4;fill-rule:nonzero;"/><path d="M37.547,73.364l0,-19.566c-0.02,-0.291 -0.03,-0.588 -0.03,-0.89l0,-6.828l0.001,0c0.018,0 4.799,-0.003 8.004,-1.841l-1.232,2.235c0,0 2.777,0.305 5.776,-0.169l0,-17.499c-4.066,0 -7.746,1.648 -10.411,4.313c-2.665,2.665 -4.313,6.347 -4.313,10.412l0,26.465c0,0.391 0.064,0.771 0.179,1.129c0.32,0.989 1.048,1.813 2.026,2.239Z" style="fill:#3e3d3e;fill-rule:nonzero;"/><path d="M50.066,46.305l0.001,0c1.806,-0.286 3.693,-0.856 5.1,-1.948c2.313,-1.797 3.308,-4.119 3.731,-5.631c2.441,2.005 3.63,4.835 3.709,7.108l0,3.383l0.008,0l0,3.691c0,0.252 -0.008,0.5 -0.021,0.744c-0.001,0.017 -0.001,0.033 -0.002,0.05c-0.006,0.1 -0.014,0.199 -0.022,0.298c-0.003,0.033 -0.005,0.066 -0.008,0.099c-0.008,0.092 -0.018,0.182 -0.028,0.272c-0.004,0.04 -0.008,0.08 -0.013,0.119c-0.01,0.086 -0.022,0.171 -0.034,0.256c-0.006,0.043 -0.011,0.086 -0.018,0.128c-0.012,0.082 -0.026,0.164 -0.039,0.245c-0.008,0.044 -0.016,0.089 -0.024,0.133c-0.014,0.079 -0.03,0.158 -0.045,0.236c-0.009,0.045 -0.019,0.09 -0.028,0.134c-0.017,0.078 -0.034,0.154 -0.052,0.231c-0.01,0.044 -0.021,0.088 -0.031,0.132c-0.019,0.076 -0.038,0.151 -0.058,0.226c-0.011,0.044 -0.023,0.087 -0.035,0.13c-0.021,0.075 -0.042,0.149 -0.064,0.223c-0.012,0.042 -0.026,0.084 -0.039,0.126c-0.022,0.074 -0.045,0.148 -0.07,0.221c-0.013,0.04 -0.027,0.079 -0.04,0.119c-0.026,0.074 -0.051,0.148 -0.077,0.221c-0.014,0.036 -0.028,0.073 -0.041,0.109c-0.028,0.075 -0.057,0.151 -0.086,0.225c-0.012,0.029 -0.024,0.058 -0.035,0.087c-0.033,0.08 -0.066,0.161 -0.1,0.241c-0.001,0 -0.001,0.001 -0.001,0.002c-0.123,0.286 -0.257,0.564 -0.398,0.835c-0.016,0.029 -0.031,0.059 -0.046,0.088c-0.034,0.064 -0.069,0.126 -0.103,0.189c-0.022,0.038 -0.043,0.077 -0.065,0.115c-0.032,0.058 -0.066,0.116 -0.1,0.173c-0.025,0.042 -0.049,0.084 -0.074,0.126c-0.033,0.054 -0.067,0.107 -0.1,0.161c-0.027,0.043 -0.054,0.087 -0.082,0.13c-0.033,0.052 -0.067,0.103 -0.1,0.154c-0.029,0.044 -0.059,0.088 -0.088,0.131c-0.033,0.049 -0.067,0.098 -0.101,0.146c-0.031,0.045 -0.063,0.09 -0.094,0.134c-0.034,0.047 -0.067,0.093 -0.101,0.139c-0.033,0.045 -0.067,0.09 -0.1,0.134c-0.034,0.044 -0.068,0.089 -0.102,0.132c-0.035,0.046 -0.071,0.091 -0.106,0.136c-0.033,0.042 -0.067,0.083 -0.1,0.124c-0.038,0.047 -0.077,0.094 -0.115,0.14c-0.033,0.038 -0.064,0.076 -0.097,0.114c-0.041,0.049 -0.083,0.097 -0.125,0.145c-0.031,0.034 -0.061,0.069 -0.092,0.103c-0.047,0.053 -0.094,0.104 -0.141,0.155c-0.027,0.029 -0.053,0.058 -0.08,0.087c-0.056,0.06 -0.114,0.119 -0.171,0.178c-0.018,0.019 -0.036,0.039 -0.055,0.058c-0.225,0.23 -0.457,0.451 -0.692,0.663c-0.278,0.249 -0.527,0.522 -0.748,0.816l0,4.537l0.001,0c1.4,0.358 2.749,0.845 4.035,1.443c0.067,0.031 0.134,0.062 0.201,0.094c0.049,0.024 0.097,0.048 0.146,0.071c0.109,0.053 0.218,0.107 0.326,0.161c0.06,0.031 0.12,0.062 0.18,0.093c0.096,0.05 0.192,0.1 0.287,0.15c0.064,0.035 0.128,0.069 0.192,0.104c0.091,0.05 0.182,0.1 0.272,0.151c0.064,0.036 0.128,0.072 0.192,0.109c0.091,0.052 0.181,0.106 0.271,0.159c0.061,0.036 0.122,0.072 0.183,0.109c0.097,0.059 0.194,0.119 0.291,0.18c0.051,0.032 0.103,0.064 0.155,0.097c0.147,0.094 0.293,0.188 0.438,0.285c0.125,-0.376 0.193,-0.778 0.193,-1.188l0,-26.445c0,-8.133 -6.592,-14.725 -14.725,-14.725l0,17.499Z" style="fill:#231f20;fill-rule:nonzero;"/><path d="M43.791,74.167l-0.263,0l0.618,2.21l2.24,2.699l3.68,-4.404l-6.275,-2.947l0,2.442Z" style="fill:#fff;fill-rule:nonzero;"/><path d="M50.066,74.672l3.68,4.404l3.682,-7.862l-7.362,3.458Z" style="fill:#e8e9ea;fill-rule:nonzero;"/><path d="M43.528,74.167l0.263,0l0,-2.442l0,-5.117c-0.005,-1.159 -0.402,-2.27 -1.087,-3.186c-0.22,-0.295 -0.47,-0.569 -0.746,-0.817c-0.033,-0.03 -0.065,-0.06 -0.098,-0.09c-0.02,-0.018 -0.039,-0.036 -0.059,-0.054c-0.07,-0.064 -0.139,-0.13 -0.209,-0.196c-0.01,-0.01 -0.02,-0.019 -0.03,-0.029c-0.162,-0.156 -0.321,-0.317 -0.478,-0.483c-0.014,-0.014 -0.028,-0.03 -0.042,-0.045c-0.063,-0.066 -0.125,-0.134 -0.187,-0.202c-0.017,-0.02 -0.036,-0.04 -0.053,-0.06c-0.06,-0.067 -0.119,-0.134 -0.177,-0.202c-0.016,-0.019 -0.032,-0.037 -0.048,-0.056c-0.069,-0.081 -0.137,-0.162 -0.204,-0.245c-0.004,-0.005 -0.008,-0.01 -0.012,-0.015c-0.146,-0.181 -0.289,-0.367 -0.427,-0.557c-0.013,-0.018 -0.026,-0.035 -0.038,-0.053c-0.055,-0.076 -0.11,-0.153 -0.163,-0.231c-0.015,-0.022 -0.03,-0.044 -0.045,-0.066c-0.053,-0.078 -0.106,-0.157 -0.157,-0.237c-0.013,-0.019 -0.025,-0.037 -0.037,-0.056c-0.129,-0.201 -0.253,-0.407 -0.372,-0.618c0,-0.001 0,-0.001 -0.001,-0.001c-0.057,-0.102 -0.113,-0.205 -0.168,-0.309c-0.01,-0.019 -0.02,-0.039 -0.03,-0.058c-0.046,-0.087 -0.09,-0.176 -0.134,-0.265c-0.011,-0.022 -0.022,-0.045 -0.033,-0.068c-0.045,-0.092 -0.088,-0.184 -0.131,-0.278c-0.007,-0.016 -0.015,-0.033 -0.022,-0.049c-0.102,-0.228 -0.198,-0.459 -0.287,-0.696c-0.002,-0.005 -0.004,-0.01 -0.006,-0.016c-0.041,-0.109 -0.08,-0.219 -0.118,-0.33c-0.008,-0.022 -0.015,-0.044 -0.022,-0.065c-0.033,-0.098 -0.065,-0.197 -0.095,-0.296c-0.008,-0.024 -0.015,-0.048 -0.023,-0.072c-0.031,-0.106 -0.062,-0.212 -0.091,-0.319c-0.004,-0.015 -0.008,-0.03 -0.012,-0.045c-0.068,-0.251 -0.128,-0.508 -0.181,-0.769c-0.002,-0.013 -0.004,-0.026 -0.007,-0.039c-0.022,-0.113 -0.043,-0.228 -0.063,-0.343c-0.004,-0.028 -0.009,-0.055 -0.013,-0.083c-0.017,-0.104 -0.033,-0.209 -0.047,-0.314c-0.004,-0.029 -0.008,-0.059 -0.012,-0.088c-0.015,-0.114 -0.028,-0.228 -0.04,-0.343c-0.001,-0.019 -0.004,-0.038 -0.005,-0.057c-0.014,-0.135 -0.025,-0.271 -0.034,-0.409l0,19.566c0.073,0.033 0.148,0.062 0.225,0.09c0.324,0.116 0.653,0.218 0.985,0.306c1.013,0.268 2.062,0.407 3.124,0.407l1.647,0Z" style="fill:#231f20;fill-rule:nonzero;"/></svg>