<?xml version="1.0" encoding="UTF-8" standalone="no"?><!DOCTYPE svg PUBLIC "-//W3C//DTD SVG 1.1//EN" "http://www.w3.org/Graphics/SVG/1.1/DTD/svg11.dtd"><svg width="100%" height="100%" viewBox="0 0 100 100" version="1.1" xmlns="http://www.w3.org/2000/svg" xmlns:xlink="http://www.w3.org/1999/xlink" xml:space="preserve" xmlns:serif="http://www.serif.com/" style="fill-rule:evenodd;clip-rule:evenodd;stroke-linejoin:round;stroke-miterlimit:2;"><circle cx="50" cy="50" r="50" style="fill:#008fff;"/><path d="M40.608,71.318l0,-2.836l0.001,-0.001c-9.18,3.231 -15.759,11.978 -15.759,22.262l0,9.257l25.15,0l0,-16.873c-8.233,-3.975 -9.392,-11.809 -9.392,-11.809Z" style="fill:#00498f;fill-rule:nonzero;"/><path d="M57.865,68.003c0.068,0.018 0.136,0.037 0.204,0.056c-0.068,-0.019 -0.136,-0.038 -0.204,-0.056Z" style="fill:#003d7e;fill-rule:nonzero;"/><path d="M58.542,68.2c0.058,0.018 0.116,0.037 0.174,0.056c-0.058,-0.019 -0.116,-0.038 -0.174,-0.056Z" style="fill:#003d7e;fill-rule:nonzero;"/><path d="M59.034,68.359c0.076,0.025 0.152,0.052 0.227,0.078c-0.075,-0.026 -0.151,-0.053 -0.227,-0.078Z" style="fill:#003d7e;fill-rule:nonzero;"/><path d="M57.565,67.922c-0.046,-0.013 -0.092,-0.025 -0.139,-0.037l0,0.001c0.047,0.012 0.093,0.023 0.139,0.036Z" style="fill:#003d7e;fill-rule:nonzero;"/><path d="M59.392,68.483l0,2.835c0,0 -1.159,7.834 -9.392,11.809l0,16.873l25.15,0l0,-9.257c0,-10.283 -6.58,-19.029 -15.758,-22.26Z" style="fill:#003d7e;fill-rule:nonzero;"/><path d="M40.608,71.318c0,0 1.159,7.834 9.392,11.809l0,-2.13c-3.733,-2.585 -6.513,-5.693 -7.426,-9.828l0,-3.283c-0.667,0.171 -1.323,0.369 -1.965,0.595l-0.001,0.001l0,2.836Z" style="fill:#002d65;fill-rule:nonzero;"/><path d="M57.426,71.169c-0.913,4.135 -3.693,7.243 -7.426,9.828l0,2.13c8.233,-3.975 9.392,-11.809 9.392,-11.809l0,-2.835l0,-0.001l-0.001,-0.001c-0.043,-0.015 -0.087,-0.03 -0.13,-0.044c-0.075,-0.026 -0.151,-0.053 -0.227,-0.078c-0.106,-0.035 -0.211,-0.069 -0.318,-0.103c-0.058,-0.019 -0.116,-0.038 -0.174,-0.056c-0.157,-0.049 -0.315,-0.095 -0.473,-0.141c-0.068,-0.019 -0.136,-0.038 -0.204,-0.056c-0.1,-0.028 -0.199,-0.055 -0.3,-0.081c-0.046,-0.013 -0.092,-0.024 -0.139,-0.036l0,3.283Z" style="fill:#002451;fill-rule:nonzero;"/><path d="M50,80.997l0,-16.083l0,-6.254l0,10.275c-5.094,0 -4.962,-0.706 -7.25,-3.254c-0.059,-0.065 -0.118,-0.13 -0.176,-0.196l0,5.684c0.913,4.135 3.693,7.243 7.426,9.828Z" style="fill:#e9cc9c;fill-rule:nonzero;"/><path d="M50,68.935l0,-10.275l0,0l0,22.337c3.733,-2.585 6.513,-5.693 7.426,-9.828l0,-3.283l0,-0.001l0,-2.399c-0.058,0.065 -0.116,0.13 -0.175,0.196c-2.289,2.547 -2.156,3.253 -7.251,3.253Z" style="fill:#d4b182;fill-rule:nonzero;"/><path d="M50,68.935l0,-1.787l0,-8.488l0,-13.946c-0.698,0.265 -1.452,0.496 -2.265,0.679c0.429,-0.853 0.829,-1.537 0.853,-1.578c-0.071,0.035 -2.406,1.2 -6.437,1.578c-1.411,0.133 -2.548,0.174 -3.432,0.171l0,2.598c0,0.895 -0.83,1.319 -1.367,1.5l0,4.923l-0.005,0c0.102,4.925 2.347,7.688 5.227,10.9c0.058,0.066 0.117,0.131 0.176,0.196c2.288,2.548 2.156,3.254 7.25,3.254Z" style="fill:#ffe6b8;fill-rule:nonzero;"/><path d="M37.352,46.006l0,3.656c0.537,-0.181 1.367,-0.605 1.367,-1.5l0,-2.598c0.884,0.003 2.021,-0.038 3.432,-0.171c4.031,-0.378 6.366,-1.543 6.437,-1.578c-0.024,0.041 -0.424,0.725 -0.853,1.578c0.813,-0.183 1.567,-0.414 2.265,-0.679l0,-14.042l0,-4.508c-3.94,0.086 -7.641,1.879 -9.041,3.011c-1.935,1.564 -5.13,5.063 -5.43,9.754c0.519,-0.119 1.079,-0.241 1.654,-0.362c-0.59,1.531 -0.914,3.196 -0.914,4.935l0,1.891c0,0 0.001,0.001 0.002,0.001l-0.002,0l0,0.677c0.209,-0.043 0.426,-0.065 0.648,-0.065l0.435,0Z" style="fill:#ad874d;fill-rule:nonzero;"/><path d="M50,44.714l0,0c5.322,-2.015 7.426,-6.009 7.426,-6.009c0,4.626 1.91,6.247 3.647,6.765l0,2.692c0,1.028 1.097,1.436 1.585,1.566l0,0.052l0,-3.774l0.435,0c0.263,0 0.517,0.035 0.762,0.094l0,-0.536l0,-0.17l0,-5.628c0,-2.719 -1.086,-5.183 -2.847,-6.984c0.862,-0.367 2.102,-0.719 3.113,-0.306c-1.264,-1.165 -2.729,-1.266 -3.801,-1.06c0.158,-1.112 -0.041,-2.962 -1.75,-4.199c0.542,0.812 0.52,1.926 0.375,2.808c-0.779,-1.007 -2.121,-2.139 -4.434,-3.084c-1.463,-0.597 -3.004,-0.813 -4.511,-0.777l0,18.55Z" style="fill:#967642;fill-rule:nonzero;"/><path d="M37.352,49.662l0,-3.656l-0.435,0c-0.222,0 -0.439,0.022 -0.648,0.065c-1.464,0.3 -2.565,1.596 -2.565,3.148l0,1.424c0,0.58 0.157,1.149 0.454,1.647l0.435,0.728c0.579,0.97 1.625,1.565 2.754,1.567l0.005,0l0,-4.923Z" style="fill:#fed8a5;fill-rule:nonzero;"/><path d="M62.658,46.006l0,3.774l0,-0.052c-0.488,-0.13 -1.585,-0.538 -1.585,-1.566l0,-2.692c-1.737,-0.518 -3.647,-2.139 -3.647,-6.765c0,0 -2.104,3.994 -7.426,6.009l0,24.221c5.095,0 4.962,-0.706 7.251,-3.253c0.059,-0.066 0.117,-0.131 0.175,-0.196c2.948,-3.289 5.232,-6.104 5.232,-11.249l0,0.348c1.131,0 2.179,-0.595 2.759,-1.567l0.435,-0.728c0.297,-0.498 0.454,-1.067 0.454,-1.647l0,-1.424c0,-1.511 -1.045,-2.776 -2.451,-3.119c-0.245,-0.059 -0.499,-0.094 -0.762,-0.094l-0.435,0Z" style="fill:#fed8a5;fill-rule:nonzero;"/></svg>