<?xml version="1.0" encoding="UTF-8" standalone="no"?><!DOCTYPE svg PUBLIC "-//W3C//DTD SVG 1.1//EN" "http://www.w3.org/Graphics/SVG/1.1/DTD/svg11.dtd"><svg width="100%" height="100%" viewBox="0 0 100 100" version="1.1" xmlns="http://www.w3.org/2000/svg" xmlns:xlink="http://www.w3.org/1999/xlink" xml:space="preserve" xmlns:serif="http://www.serif.com/" style="fill-rule:evenodd;clip-rule:evenodd;stroke-linejoin:round;stroke-miterlimit:2;"><circle cx="50" cy="50" r="50" style="fill:#008fff;"/><path d="M36.334,86.722l0,-16.007c-6.794,4.108 -11.334,11.565 -11.334,20.084l0,9.201l7.871,0l1.096,-2.392c1.558,-3.402 2.367,-7.12 2.367,-10.886Z" style="fill:#754c28;fill-rule:nonzero;"/><path d="M63.839,70.823l0,15.899c0,3.031 0.525,6.031 1.543,8.86c0.01,0.027 0.018,0.054 0.028,0.081c0.008,0.024 0.018,0.048 0.026,0.073c0.233,0.633 0.489,1.258 0.77,1.872l1.096,2.392l7.698,0l0,-9.201c0,-8.445 -4.465,-15.846 -11.161,-19.976Z" style="fill:#603d1d;fill-rule:nonzero;"/><path d="M49.999,82.295c-4.026,-2.022 -6.213,-5.012 -7.357,-7.261c-0.77,-1.512 -1.163,-3.189 -1.163,-4.887l0,-2.891c-1.416,0.454 -2.775,1.048 -4.062,1.76l0,17.253c0,4.4 -0.98,8.745 -2.871,12.718l-0.484,1.013l16.025,0l0,-17.75c-0.029,0.015 -0.057,0.03 -0.088,0.045Z" style="fill:#ca161d;fill-rule:nonzero;"/><path d="M63.839,69.653c-0.054,-0.035 -0.113,-0.068 -0.168,-0.102c0.055,0.034 0.114,0.068 0.168,0.103l0,-0.001Z" style="fill:#921114;fill-rule:nonzero;"/><path d="M62.922,69.111c0.114,0.064 0.23,0.128 0.341,0.194c-0.111,-0.066 -0.227,-0.13 -0.341,-0.194Z" style="fill:#921114;fill-rule:nonzero;"/><path d="M65.41,95.663c0.008,0.024 0.018,0.048 0.026,0.073c-0.008,-0.025 -0.018,-0.049 -0.026,-0.073Z" style="fill:#921114;fill-rule:nonzero;"/><path d="M65.382,95.582c-1.018,-2.829 -1.543,-5.829 -1.543,-8.86l0,0c0,3.031 0.525,6.031 1.543,8.86Z" style="fill:#921114;fill-rule:nonzero;"/><path d="M62.756,86.269l0,-17.251c-1.679,-0.931 -3.48,-1.657 -5.374,-2.144l0,0.048c0.382,0.102 0.762,0.212 1.139,0.334l0,2.891c0,1.698 -0.393,3.375 -1.163,4.887c-1.137,2.232 -3.3,5.195 -7.271,7.216l0,17.75l16.026,0l-0.483,-1.013c-1.892,-3.973 -2.874,-8.318 -2.874,-12.718Z" style="fill:#921114;fill-rule:nonzero;"/><path d="M37.417,86.269l0,-17.253c-0.367,0.203 -0.726,0.416 -1.083,0.638l0,17.068c0,3.766 -0.809,7.484 -2.367,10.886l-1.096,2.392l1.191,0l0.484,-1.013c1.891,-3.973 2.871,-8.318 2.871,-12.718Z" style="fill:#fff;fill-rule:nonzero;"/><path d="M65.436,95.736c-0.008,-0.025 -0.018,-0.049 -0.026,-0.073c-0.01,-0.027 -0.018,-0.054 -0.028,-0.081c-1.018,-2.829 -1.543,-5.829 -1.543,-8.86l0,0l0,-15.899l0,-1.169c-0.054,-0.035 -0.113,-0.069 -0.168,-0.103c-0.137,-0.083 -0.271,-0.166 -0.408,-0.246c-0.111,-0.066 -0.227,-0.13 -0.341,-0.194c-0.054,-0.031 -0.109,-0.064 -0.166,-0.095l0,17.253c0,4.4 0.982,8.745 2.874,12.718l0.483,1.013l1.189,0l-1.096,-2.392c-0.281,-0.614 -0.537,-1.239 -0.77,-1.872Z" style="fill:#dcddde;fill-rule:nonzero;"/><path d="M41.479,70.147c0,1.698 0.393,3.375 1.163,4.887c1.144,2.249 3.331,5.239 7.357,7.261l0,-1.184c-3.708,-2.569 -6.474,-5.659 -7.381,-9.77l0,-4.419c-0.382,0.102 -0.762,0.212 -1.139,0.334l0,2.891Z" style="fill:#dcddde;fill-rule:nonzero;"/><path d="M57.382,71.341c-0.907,4.111 -3.673,7.201 -7.383,9.77l0,1.184c0.031,-0.015 0.059,-0.03 0.088,-0.045c3.971,-2.021 6.134,-4.984 7.271,-7.216c0.77,-1.512 1.163,-3.189 1.163,-4.887l0,-2.891c-0.377,-0.122 -0.757,-0.232 -1.139,-0.334l0,4.419Z" style="fill:#bec0c2;fill-rule:nonzero;"/><path d="M62.581,54.511c0,0.096 -0.003,0.19 -0.003,0.285c0.879,-0.174 1.654,-0.711 2.124,-1.496l0.432,-0.725c0.294,-0.495 0.452,-1.06 0.452,-1.637l0,-1.415c0,-1.7 -1.331,-3.085 -3.005,-3.184l0,8.172Z" style="fill:#603d1d;fill-rule:nonzero;"/><path d="M37.417,48.324l0,-1.995l-0.422,0c-1.765,0 -3.194,1.43 -3.194,3.194l0,1.415c0,0.577 0.156,1.142 0.45,1.637l0.434,0.725c0.577,0.964 1.615,1.555 2.737,1.557c-0.003,-0.115 -0.005,-0.229 -0.005,-0.346l0,-6.187Z" style="fill:#754c28;fill-rule:nonzero;"/><path d="M42.618,71.341c0.907,4.111 3.673,7.201 7.381,9.77l0,-11.99c-5.063,0 -4.931,-0.702 -7.207,-3.234c-0.057,-0.066 -0.117,-0.13 -0.174,-0.195l0,5.649Z" style="fill:#754c28;fill-rule:nonzero;"/><path d="M49.999,69.121l0,11.99c3.71,-2.569 6.476,-5.659 7.383,-9.77l0,-4.419l0,-0.048l0,-1.181c-0.057,0.063 -0.117,0.128 -0.176,0.194c-2.274,2.532 -2.142,3.234 -7.207,3.234Z" style="fill:#603d1d;fill-rule:nonzero;"/><path d="M62.581,48.324c-0.938,0 -1.711,-0.733 -1.763,-1.668l-0.279,-4.919c0,0 -5.982,-2.369 -10.54,-2.369l0,19.539l3.796,0c1.979,0 3.587,1.607 3.587,3.588l0,3.198c2.873,-3.207 5.113,-5.962 5.196,-10.897c0,-0.095 0.003,-0.189 0.003,-0.285l0,-6.187Z" style="fill:#754c28;fill-rule:nonzero;"/><path d="M42.792,62.495c0,-1.981 1.607,-3.588 3.589,-3.588l3.618,0l0,-19.539c-4.556,0 -10.541,2.369 -10.541,2.369l-0.276,4.919c-0.052,0.935 -0.825,1.668 -1.765,1.668l0,6.187c0,0.117 0.002,0.231 0.005,0.346c0.101,4.896 2.333,7.642 5.196,10.835c0.057,0.065 0.117,0.129 0.174,0.195l0,-3.392Z" style="fill:#8a5d3b;fill-rule:nonzero;"/><path d="M47.004,61.202l5.992,0c0.778,0 1.409,0.629 1.409,1.406c0,0.777 -0.631,1.406 -1.409,1.406l-5.992,0c-0.778,0 -1.409,-0.629 -1.409,-1.406c0,-0.777 0.631,-1.406 1.409,-1.406Zm6.791,-2.295l-3.796,0l-3.618,0c-1.982,0 -3.589,1.607 -3.589,3.588l0,3.392c2.276,2.532 2.144,3.234 7.207,3.234c5.065,0 4.933,-0.702 7.207,-3.234c0.059,-0.066 0.119,-0.131 0.176,-0.194l0,-3.198c0,-1.981 -1.608,-3.588 -3.587,-3.588Z" style="fill:#2c1111;fill-rule:nonzero;"/><path d="M47.004,64.014l5.992,0c0.778,0 1.409,-0.629 1.409,-1.406c0,-0.777 -0.631,-1.406 -1.409,-1.406l-5.992,0c-0.778,0 -1.409,0.629 -1.409,1.406c0,0.777 0.631,1.406 1.409,1.406Z" style="fill:#8a5d3b;fill-rule:nonzero;"/><path d="M39.182,46.656l0.276,-4.919c0,0 5.985,-2.369 10.541,-2.369c4.558,0 10.54,2.369 10.54,2.369l0.279,4.919c0.052,0.935 0.825,1.668 1.763,1.668l0,-1.985l0,-0.506l0,-3.454c0,-0.115 -0.003,-0.231 -0.008,-0.346c-0.111,-3.137 0.008,-11.694 -12.574,-11.694c-12.572,0 -12.469,8.776 -12.575,11.694c-0.002,0.115 -0.005,0.231 -0.007,0.346l0,5.945c0.94,0 1.713,-0.733 1.765,-1.668Z" style="fill:#2c1111;fill-rule:nonzero;"/></svg>