<?xml version="1.0" encoding="UTF-8" standalone="no"?><!DOCTYPE svg PUBLIC "-//W3C//DTD SVG 1.1//EN" "http://www.w3.org/Graphics/SVG/1.1/DTD/svg11.dtd"><svg width="100%" height="100%" viewBox="0 0 100 100" version="1.1" xmlns="http://www.w3.org/2000/svg" xmlns:xlink="http://www.w3.org/1999/xlink" xml:space="preserve" xmlns:serif="http://www.serif.com/" style="fill-rule:evenodd;clip-rule:evenodd;stroke-linejoin:round;stroke-miterlimit:2;"><circle cx="50" cy="50" r="50" style="fill:#008fff;"/><path d="M50,27.969l0,-3.996c-2.017,0 -3.652,1.634 -3.652,3.651c0,0.438 0.077,0.858 0.219,1.247c1.95,-0.755 3.432,-0.902 3.432,-0.902l0.001,0Z" style="fill:#49352f;fill-rule:nonzero;"/><path d="M53.432,28.871c0.141,-0.39 0.218,-0.809 0.218,-1.247c0,-2.017 -1.634,-3.651 -3.65,-3.651l0,3.996c0.011,0.002 1.488,0.15 3.432,0.902Z" style="fill:#2b1b15;fill-rule:nonzero;"/><path d="M33.916,72.394c0.064,-0.051 0.129,-0.102 0.194,-0.152c-0.065,0.05 -0.13,0.101 -0.194,0.152Z" style="fill:#6e9aaf;fill-rule:nonzero;"/><path d="M33.567,72.676c0.061,-0.051 0.123,-0.102 0.186,-0.152c-0.063,0.05 -0.125,0.101 -0.186,0.152Z" style="fill:#6e9aaf;fill-rule:nonzero;"/><path d="M33.221,72.966c0.06,-0.052 0.12,-0.103 0.181,-0.153c-0.061,0.05 -0.121,0.101 -0.181,0.153Z" style="fill:#6e9aaf;fill-rule:nonzero;"/><path d="M34.93,71.636c0.201,-0.143 0.404,-0.282 0.61,-0.418c-0.206,0.136 -0.409,0.275 -0.61,0.418Z" style="fill:#6e9aaf;fill-rule:nonzero;"/><path d="M34.269,72.12c0.067,-0.051 0.134,-0.102 0.202,-0.153c-0.068,0.051 -0.135,0.102 -0.202,0.153Z" style="fill:#6e9aaf;fill-rule:nonzero;"/><path d="M34.62,71.859c0.072,-0.053 0.145,-0.107 0.219,-0.16c-0.074,0.053 -0.147,0.107 -0.219,0.16Z" style="fill:#6e9aaf;fill-rule:nonzero;"/><path d="M32.881,73.262c0.058,-0.052 0.116,-0.103 0.175,-0.154c-0.059,0.051 -0.117,0.102 -0.175,0.154Z" style="fill:#6e9aaf;fill-rule:nonzero;"/><path d="M31.457,74.639c0.043,-0.045 0.086,-0.091 0.129,-0.136c-0.043,0.045 -0.086,0.091 -0.129,0.136Z" style="fill:#6e9aaf;fill-rule:nonzero;"/><path d="M35.934,70.963c0.085,-0.053 0.17,-0.106 0.255,-0.158c-0.085,0.052 -0.17,0.105 -0.255,0.158Z" style="fill:#6e9aaf;fill-rule:nonzero;"/><path d="M31.136,74.983c0.046,-0.05 0.091,-0.1 0.138,-0.15c-0.047,0.05 -0.092,0.1 -0.138,0.15Z" style="fill:#6e9aaf;fill-rule:nonzero;"/><path d="M35.556,71.207c0.087,-0.058 0.176,-0.114 0.264,-0.171c-0.088,0.057 -0.177,0.113 -0.264,0.171Z" style="fill:#6e9aaf;fill-rule:nonzero;"/><path d="M32.546,73.565c0.056,-0.051 0.112,-0.102 0.167,-0.153c-0.055,0.051 -0.111,0.102 -0.167,0.153Z" style="fill:#6e9aaf;fill-rule:nonzero;"/><path d="M32.217,73.874c0.052,-0.05 0.105,-0.099 0.158,-0.149c-0.053,0.05 -0.106,0.099 -0.158,0.149Z" style="fill:#6e9aaf;fill-rule:nonzero;"/><path d="M31.894,74.19c0.044,-0.044 0.089,-0.087 0.134,-0.131c-0.045,0.044 -0.09,0.087 -0.134,0.131Z" style="fill:#6e9aaf;fill-rule:nonzero;"/><path d="M37.479,70.067c0.094,-0.05 0.189,-0.1 0.284,-0.149c-0.095,0.049 -0.19,0.099 -0.284,0.149Z" style="fill:#6e9aaf;fill-rule:nonzero;"/><path d="M25.318,86.932c0.01,-0.059 0.019,-0.117 0.029,-0.176c-0.01,0.059 -0.019,0.117 -0.029,0.176Z" style="fill:#6e9aaf;fill-rule:nonzero;"/><path d="M37.091,70.277c0.089,-0.049 0.179,-0.098 0.269,-0.147c-0.09,0.049 -0.18,0.098 -0.269,0.147Z" style="fill:#6e9aaf;fill-rule:nonzero;"/><path d="M41.979,68.251c0.211,-0.061 0.424,-0.119 0.638,-0.174c-0.214,0.055 -0.427,0.113 -0.638,0.174Z" style="fill:#6e9aaf;fill-rule:nonzero;"/><path d="M58.895,68.52c0.209,0.069 0.416,0.14 0.622,0.215c-0.206,-0.075 -0.413,-0.146 -0.622,-0.215Z" style="fill:#6e9aaf;fill-rule:nonzero;"/><path d="M37.863,69.868c0.102,-0.052 0.205,-0.104 0.307,-0.154c-0.102,0.051 -0.205,0.102 -0.307,0.154Z" style="fill:#6e9aaf;fill-rule:nonzero;"/><path d="M41.187,68.492c0.208,-0.067 0.417,-0.131 0.626,-0.193c-0.209,0.062 -0.418,0.126 -0.626,0.193Z" style="fill:#6e9aaf;fill-rule:nonzero;"/><path d="M40.526,68.72c0.203,-0.073 0.408,-0.144 0.614,-0.212c-0.206,0.068 -0.411,0.139 -0.614,0.212Z" style="fill:#6e9aaf;fill-rule:nonzero;"/><path d="M58.212,68.307c0.175,0.052 0.35,0.106 0.524,0.162c-0.174,-0.056 -0.349,-0.11 -0.524,-0.162Z" style="fill:#6e9aaf;fill-rule:nonzero;"/><path d="M57.382,68.076l0,0.001l0.001,0c0.227,0.058 0.453,0.12 0.677,0.185c-0.225,-0.065 -0.451,-0.127 -0.679,-0.186l0.001,0Z" style="fill:#6e9aaf;fill-rule:nonzero;"/><path d="M36.703,70.497c0.086,-0.05 0.173,-0.099 0.26,-0.148c-0.087,0.049 -0.174,0.098 -0.26,0.148Z" style="fill:#6e9aaf;fill-rule:nonzero;"/><path d="M36.317,70.726c0.084,-0.051 0.169,-0.101 0.254,-0.151c-0.085,0.05 -0.17,0.1 -0.254,0.151Z" style="fill:#6e9aaf;fill-rule:nonzero;"/><path d="M25.412,86.404c0.007,-0.037 0.013,-0.075 0.021,-0.112c-0.008,0.037 -0.014,0.074 -0.021,0.112Z" style="fill:#6e9aaf;fill-rule:nonzero;"/><path d="M25.527,85.833c0.01,-0.046 0.021,-0.092 0.031,-0.138c-0.01,0.046 -0.021,0.092 -0.031,0.138Z" style="fill:#6e9aaf;fill-rule:nonzero;"/><path d="M29.957,76.377c0.043,-0.055 0.087,-0.11 0.13,-0.164c-0.043,0.054 -0.087,0.109 -0.13,0.164Z" style="fill:#6e9aaf;fill-rule:nonzero;"/><path d="M30.829,75.326c0.046,-0.053 0.092,-0.106 0.139,-0.158c-0.047,0.052 -0.093,0.105 -0.139,0.158Z" style="fill:#6e9aaf;fill-rule:nonzero;"/><path d="M28.075,79.184c0.033,-0.059 0.067,-0.118 0.101,-0.176c-0.034,0.058 -0.068,0.117 -0.101,0.176Z" style="fill:#6e9aaf;fill-rule:nonzero;"/><path d="M26.135,83.572c0.021,-0.064 0.042,-0.129 0.064,-0.194c-0.022,0.065 -0.043,0.13 -0.064,0.194Z" style="fill:#6e9aaf;fill-rule:nonzero;"/><path d="M26.444,82.682c0.021,-0.059 0.043,-0.119 0.065,-0.178c-0.022,0.059 -0.044,0.119 -0.065,0.178Z" style="fill:#6e9aaf;fill-rule:nonzero;"/><path d="M26.284,83.128c0.022,-0.063 0.044,-0.126 0.066,-0.189c-0.022,0.063 -0.044,0.126 -0.066,0.189Z" style="fill:#6e9aaf;fill-rule:nonzero;"/><path d="M30.241,76.022c0.044,-0.055 0.089,-0.11 0.134,-0.164c-0.045,0.054 -0.09,0.109 -0.134,0.164Z" style="fill:#6e9aaf;fill-rule:nonzero;"/><path d="M25.005,90.31c0.001,-0.053 0.003,-0.107 0.005,-0.16c-0.002,0.053 -0.004,0.107 -0.005,0.16Z" style="fill:#6e9aaf;fill-rule:nonzero;"/><path d="M25.179,87.898c0.008,-0.067 0.016,-0.134 0.025,-0.201c-0.009,0.067 -0.017,0.134 -0.025,0.201Z" style="fill:#6e9aaf;fill-rule:nonzero;"/><path d="M25.02,89.825c0.003,-0.065 0.006,-0.128 0.009,-0.192c-0.003,0.064 -0.006,0.127 -0.009,0.192Z" style="fill:#6e9aaf;fill-rule:nonzero;"/><path d="M25.996,84.019c0.019,-0.066 0.039,-0.131 0.06,-0.196c-0.021,0.065 -0.041,0.13 -0.06,0.196Z" style="fill:#6e9aaf;fill-rule:nonzero;"/><path d="M27.226,80.813c0.028,-0.058 0.056,-0.117 0.084,-0.175c-0.028,0.058 -0.056,0.116 -0.084,0.175Z" style="fill:#6e9aaf;fill-rule:nonzero;"/><path d="M27.034,81.231c0.024,-0.054 0.049,-0.107 0.073,-0.16c-0.024,0.053 -0.049,0.106 -0.073,0.16Z" style="fill:#6e9aaf;fill-rule:nonzero;"/><path d="M30.531,75.671c0.046,-0.054 0.091,-0.107 0.137,-0.161c-0.046,0.054 -0.091,0.107 -0.137,0.161Z" style="fill:#6e9aaf;fill-rule:nonzero;"/><path d="M59.532,68.74c0.233,0.084 0.463,0.172 0.692,0.263l0,30.997l14.776,0l0,-9.201c0,-10.149 -6.446,-18.792 -15.468,-22.059Z" style="fill:#6e9aaf;fill-rule:nonzero;"/><path d="M27.426,80.4c0.03,-0.061 0.06,-0.121 0.091,-0.181c-0.031,0.06 -0.061,0.12 -0.091,0.181Z" style="fill:#6e9aaf;fill-rule:nonzero;"/><path d="M40.433,68.753c-0.753,0.274 -1.489,0.586 -2.204,0.933c0.506,-0.245 1.022,-0.474 1.547,-0.683c0.217,-0.086 0.436,-0.169 0.657,-0.25Z" style="fill:#6e9aaf;fill-rule:nonzero;"/><path d="M26.618,82.223c0.02,-0.05 0.039,-0.1 0.059,-0.149c-0.02,0.049 -0.039,0.099 -0.059,0.149Z" style="fill:#6e9aaf;fill-rule:nonzero;"/><path d="M26.851,81.652c0.012,-0.029 0.025,-0.058 0.038,-0.088c-0.013,0.03 -0.026,0.059 -0.038,0.088Z" style="fill:#6e9aaf;fill-rule:nonzero;"/><path d="M28.555,78.38c0.032,-0.051 0.063,-0.101 0.095,-0.152c-0.032,0.051 -0.063,0.101 -0.095,0.152Z" style="fill:#6e9aaf;fill-rule:nonzero;"/><path d="M29.681,76.738c0.041,-0.055 0.083,-0.109 0.124,-0.163c-0.041,0.054 -0.083,0.108 -0.124,0.163Z" style="fill:#6e9aaf;fill-rule:nonzero;"/><path d="M28.834,77.945c0.021,-0.033 0.043,-0.066 0.064,-0.099c-0.021,0.033 -0.043,0.066 -0.064,0.099Z" style="fill:#6e9aaf;fill-rule:nonzero;"/><path d="M25.08,88.859c0.006,-0.069 0.011,-0.138 0.018,-0.206c-0.007,0.068 -0.012,0.137 -0.018,0.206Z" style="fill:#6e9aaf;fill-rule:nonzero;"/><path d="M29.412,77.104c0.038,-0.053 0.076,-0.105 0.115,-0.157c-0.039,0.052 -0.077,0.104 -0.115,0.157Z" style="fill:#6e9aaf;fill-rule:nonzero;"/><path d="M25.865,84.468c0.019,-0.066 0.037,-0.131 0.056,-0.196c-0.019,0.065 -0.037,0.13 -0.056,0.196Z" style="fill:#6e9aaf;fill-rule:nonzero;"/><path d="M29.15,77.475c0.031,-0.046 0.063,-0.09 0.094,-0.135c-0.031,0.045 -0.063,0.089 -0.094,0.135Z" style="fill:#6e9aaf;fill-rule:nonzero;"/><path d="M28.308,78.784c0.034,-0.056 0.067,-0.113 0.101,-0.169c-0.034,0.056 -0.067,0.113 -0.101,0.169Z" style="fill:#6e9aaf;fill-rule:nonzero;"/><path d="M25.743,84.92c0.017,-0.065 0.034,-0.128 0.051,-0.192c-0.017,0.064 -0.034,0.127 -0.051,0.192Z" style="fill:#6e9aaf;fill-rule:nonzero;"/><path d="M27.85,79.586c0.033,-0.061 0.066,-0.121 0.099,-0.18c-0.033,0.059 -0.066,0.119 -0.099,0.18Z" style="fill:#6e9aaf;fill-rule:nonzero;"/><path d="M27.634,79.991c0.032,-0.061 0.064,-0.121 0.096,-0.182c-0.032,0.061 -0.064,0.121 -0.096,0.182Z" style="fill:#6e9aaf;fill-rule:nonzero;"/><path d="M25.124,88.378c0.007,-0.069 0.015,-0.137 0.022,-0.205c-0.007,0.068 -0.015,0.136 -0.022,0.205Z" style="fill:#6e9aaf;fill-rule:nonzero;"/><path d="M25.045,89.341c0.004,-0.068 0.009,-0.135 0.014,-0.203c-0.005,0.068 -0.01,0.135 -0.014,0.203Z" style="fill:#6e9aaf;fill-rule:nonzero;"/><path d="M25.631,85.375c0.014,-0.06 0.029,-0.12 0.044,-0.179c-0.015,0.059 -0.03,0.119 -0.044,0.179Z" style="fill:#6e9aaf;fill-rule:nonzero;"/><path d="M25.243,87.418c0.009,-0.064 0.018,-0.129 0.028,-0.193c-0.01,0.064 -0.019,0.129 -0.028,0.193Z" style="fill:#6e9aaf;fill-rule:nonzero;"/><path d="M38.229,69.686c-0.019,0.009 -0.039,0.019 -0.059,0.028c-0.102,0.05 -0.205,0.102 -0.307,0.154c-0.033,0.017 -0.067,0.033 -0.1,0.05c-0.095,0.049 -0.19,0.099 -0.284,0.149c-0.04,0.021 -0.079,0.042 -0.119,0.063c-0.09,0.049 -0.18,0.098 -0.269,0.147c-0.043,0.024 -0.086,0.048 -0.128,0.072c-0.087,0.049 -0.174,0.098 -0.26,0.148c-0.044,0.026 -0.088,0.052 -0.132,0.078c-0.085,0.05 -0.17,0.1 -0.254,0.151c-0.043,0.026 -0.085,0.053 -0.128,0.079c-0.085,0.052 -0.17,0.105 -0.255,0.158c-0.038,0.024 -0.076,0.049 -0.114,0.073c-0.088,0.057 -0.177,0.113 -0.264,0.171c-0.006,0.004 -0.011,0.007 -0.016,0.011c-0.206,0.136 -0.409,0.275 -0.61,0.418c-0.031,0.021 -0.061,0.042 -0.091,0.063c-0.074,0.053 -0.147,0.107 -0.219,0.16c-0.05,0.036 -0.1,0.072 -0.149,0.108c-0.068,0.051 -0.135,0.102 -0.202,0.153c-0.053,0.041 -0.107,0.081 -0.159,0.122c-0.065,0.05 -0.13,0.101 -0.194,0.152c-0.055,0.043 -0.109,0.086 -0.163,0.13c-0.063,0.05 -0.125,0.101 -0.186,0.152c-0.056,0.045 -0.111,0.091 -0.165,0.137c-0.061,0.05 -0.121,0.101 -0.181,0.153c-0.056,0.047 -0.111,0.095 -0.165,0.142c-0.059,0.051 -0.117,0.102 -0.175,0.154c-0.056,0.05 -0.112,0.1 -0.168,0.15c-0.055,0.051 -0.111,0.102 -0.167,0.153c-0.057,0.053 -0.114,0.106 -0.171,0.16c-0.053,0.05 -0.106,0.099 -0.158,0.149c-0.064,0.061 -0.126,0.123 -0.189,0.185c-0.045,0.044 -0.09,0.087 -0.134,0.131c-0.104,0.103 -0.206,0.208 -0.308,0.313c-0.043,0.045 -0.086,0.091 -0.129,0.136c-0.061,0.064 -0.123,0.129 -0.183,0.194c-0.047,0.05 -0.092,0.1 -0.138,0.15c-0.056,0.062 -0.112,0.123 -0.168,0.185c-0.047,0.052 -0.093,0.105 -0.139,0.158c-0.054,0.061 -0.108,0.122 -0.161,0.184c-0.046,0.054 -0.091,0.107 -0.137,0.161c-0.052,0.062 -0.105,0.124 -0.156,0.187c-0.045,0.054 -0.09,0.109 -0.134,0.164c-0.052,0.063 -0.103,0.127 -0.154,0.191c-0.043,0.054 -0.087,0.109 -0.13,0.164c-0.051,0.065 -0.101,0.132 -0.152,0.198c-0.041,0.054 -0.083,0.108 -0.124,0.163c-0.052,0.069 -0.103,0.139 -0.154,0.209c-0.039,0.052 -0.077,0.104 -0.115,0.157c-0.056,0.078 -0.112,0.157 -0.168,0.236c-0.031,0.045 -0.063,0.089 -0.094,0.135c-0.085,0.122 -0.169,0.246 -0.252,0.371c-0.021,0.033 -0.043,0.066 -0.064,0.099c-0.062,0.094 -0.123,0.188 -0.184,0.283c-0.032,0.051 -0.063,0.101 -0.095,0.152c-0.049,0.078 -0.098,0.156 -0.146,0.235c-0.034,0.056 -0.067,0.113 -0.101,0.169c-0.044,0.074 -0.089,0.149 -0.132,0.224c-0.034,0.058 -0.068,0.117 -0.101,0.176c-0.043,0.073 -0.085,0.147 -0.126,0.222c-0.033,0.059 -0.066,0.119 -0.099,0.18c-0.04,0.074 -0.081,0.148 -0.12,0.223c-0.032,0.061 -0.064,0.121 -0.096,0.182c-0.039,0.076 -0.078,0.152 -0.117,0.228c-0.031,0.06 -0.061,0.12 -0.091,0.181c-0.039,0.079 -0.078,0.159 -0.116,0.238c-0.028,0.058 -0.056,0.117 -0.084,0.175c-0.04,0.086 -0.079,0.172 -0.119,0.258c-0.024,0.053 -0.049,0.106 -0.073,0.16c-0.049,0.111 -0.097,0.222 -0.145,0.333c-0.013,0.03 -0.026,0.059 -0.038,0.088c-0.06,0.14 -0.118,0.281 -0.174,0.422c-0.02,0.049 -0.039,0.099 -0.059,0.149c-0.036,0.094 -0.073,0.187 -0.109,0.281c-0.022,0.059 -0.044,0.119 -0.065,0.178c-0.032,0.085 -0.064,0.171 -0.094,0.257c-0.022,0.063 -0.044,0.126 -0.066,0.189c-0.029,0.083 -0.057,0.166 -0.085,0.25c-0.022,0.065 -0.043,0.13 -0.064,0.194c-0.027,0.083 -0.053,0.167 -0.079,0.251c-0.021,0.065 -0.041,0.13 -0.06,0.196c-0.026,0.084 -0.05,0.168 -0.075,0.253c-0.019,0.065 -0.037,0.13 -0.056,0.196c-0.024,0.086 -0.047,0.173 -0.071,0.26c-0.017,0.064 -0.034,0.127 -0.051,0.192c-0.023,0.091 -0.046,0.183 -0.068,0.276c-0.015,0.059 -0.03,0.119 -0.044,0.179c-0.026,0.106 -0.049,0.213 -0.073,0.32c-0.01,0.046 -0.021,0.092 -0.031,0.138c-0.033,0.152 -0.064,0.305 -0.094,0.459c-0.008,0.037 -0.014,0.075 -0.021,0.112c-0.022,0.117 -0.044,0.234 -0.065,0.352c-0.01,0.059 -0.019,0.117 -0.029,0.176c-0.016,0.098 -0.032,0.195 -0.047,0.293c-0.01,0.064 -0.019,0.129 -0.028,0.193c-0.014,0.093 -0.027,0.186 -0.039,0.279c-0.009,0.067 -0.017,0.134 -0.025,0.201c-0.012,0.092 -0.023,0.183 -0.033,0.275c-0.007,0.068 -0.015,0.136 -0.022,0.205c-0.009,0.091 -0.018,0.183 -0.026,0.275c-0.007,0.068 -0.012,0.137 -0.018,0.206c-0.008,0.093 -0.015,0.186 -0.021,0.279c-0.005,0.068 -0.01,0.135 -0.014,0.203c-0.006,0.097 -0.011,0.194 -0.016,0.292c-0.003,0.064 -0.006,0.127 -0.009,0.192c-0.004,0.108 -0.007,0.216 -0.01,0.325c-0.002,0.053 -0.004,0.107 -0.005,0.16c-0.003,0.163 -0.005,0.325 -0.005,0.489l0,9.201l14.776,0l0,-30.997c-0.525,0.209 -1.041,0.438 -1.547,0.683Z" style="fill:#7eafc6;fill-rule:nonzero;"/><path d="M49.999,81.111c-3.709,-2.569 -6.473,-5.659 -7.381,-9.768l0,28.657l0,0l7.381,0l0,-18.889Z" style="fill:#fff;fill-rule:nonzero;"/><path d="M57.382,68.076l-0.001,0l0,3.265c-0.907,4.11 -3.671,7.2 -7.382,9.77l0,18.889l7.383,0l0,-31.923l0,-0.001Z" style="fill:#e0e1e2;fill-rule:nonzero;"/><path d="M37.418,50.592c0,0 -0.001,0 -0.001,0l0,-4.264l-0.423,0c-1.764,0 -3.194,1.43 -3.194,3.194l0,1.415c0,0.577 0.156,1.142 0.452,1.637l0.432,0.725c0.576,0.964 1.616,1.555 2.739,1.557c-0.002,-0.115 -0.005,-0.229 -0.005,-0.346l0,-3.918Z" style="fill:#fed8a5;fill-rule:nonzero;"/><path d="M42.618,71.343c0.908,4.109 3.672,7.199 7.381,9.768l0,-5.922l-3.531,-3.532c-1.469,-1.468 -2.621,-3.222 -3.386,-5.152l-0.211,-0.532c-0.025,-0.028 -0.052,-0.057 -0.078,-0.087c-0.059,-0.065 -0.117,-0.13 -0.175,-0.195l0,2.386l0,0l0,3.266Z" style="fill:#e9cc9c;fill-rule:nonzero;"/><path d="M57.128,65.975l-0.21,0.53c-0.765,1.93 -1.917,3.684 -3.386,5.152l-3.532,3.532l-0.001,0l0,5.922c3.711,-2.57 6.475,-5.66 7.382,-9.77l0,-3.265l0,0l0,-2.384c-0.057,0.065 -0.115,0.13 -0.174,0.195c-0.027,0.03 -0.052,0.059 -0.079,0.088Z" style="fill:#ebc38e;fill-rule:nonzero;"/><path d="M58.695,35.253l0.227,-0.382c-0.082,0.138 -0.157,0.265 -0.227,0.382Z" style="fill:#fed8a5;fill-rule:nonzero;"/><path d="M56.271,60.376l0.02,0.085l1.614,-2.481c2.025,-3.11 3.103,-6.74 3.106,-10.451c-0.041,-0.714 -0.208,-1.416 -0.501,-2.071c-0.334,-0.745 -0.717,-2.014 -0.771,-3.969c-0.099,-3.553 -1.875,-4.835 -1.875,-4.835l-7.864,1.48l0,18.774l1.883,0c2.09,0 3.905,1.435 4.388,3.468Z" style="fill:#fed8a5;fill-rule:nonzero;"/><path d="M59.296,34.242c-0.024,0.04 -0.047,0.079 -0.07,0.118l0.07,-0.118Z" style="fill:#fed8a5;fill-rule:nonzero;"/><path d="M58.415,35.726l0.202,-0.341c-0.075,0.126 -0.142,0.24 -0.202,0.341Z" style="fill:#fed8a5;fill-rule:nonzero;"/><path d="M58.207,36.075l0.076,-0.127c-0.027,0.045 -0.052,0.088 -0.076,0.127Z" style="fill:#fed8a5;fill-rule:nonzero;"/><path d="M57.964,36.485l0.04,-0.068c-0.014,0.025 -0.028,0.048 -0.04,0.068Z" style="fill:#fed8a5;fill-rule:nonzero;"/><path d="M57.866,36.651l0.004,-0.007c-0.002,0.003 -0.004,0.005 -0.004,0.007Z" style="fill:#fed8a5;fill-rule:nonzero;"/><path d="M57.864,36.654l0,-0.001c0,0 0,0.001 0,0.001Z" style="fill:#fed8a5;fill-rule:nonzero;"/><path d="M57.906,36.583l0.025,-0.041c-0.01,0.015 -0.018,0.029 -0.025,0.041Z" style="fill:#fed8a5;fill-rule:nonzero;"/><path d="M57.877,36.633l0.011,-0.021c-0.004,0.008 -0.008,0.015 -0.011,0.021Z" style="fill:#fed8a5;fill-rule:nonzero;"/><path d="M58.061,36.322l0.058,-0.098c-0.021,0.035 -0.04,0.068 -0.058,0.098Z" style="fill:#fed8a5;fill-rule:nonzero;"/><path d="M62.582,47.513l0,0l0,6.997c0,0.097 -0.002,0.19 -0.004,0.285c0.878,-0.173 1.655,-0.711 2.123,-1.496l0.433,-0.725c0.295,-0.495 0.451,-1.06 0.451,-1.637l0,-1.415c0,-1.699 -1.328,-3.085 -3.003,-3.184l0,-0.507l0,-3.453l0,-0.006l0,5.141Z" style="fill:#fed8a5;fill-rule:nonzero;"/><path d="M57.208,65.886c-0.027,0.03 -0.054,0.059 -0.079,0.087l-0.001,0.002c0.027,-0.029 0.052,-0.058 0.079,-0.088c0.059,-0.065 0.117,-0.13 0.174,-0.195c0.378,-0.421 0.744,-0.834 1.096,-1.246c-0.406,0.475 -0.83,0.951 -1.269,1.44Z" style="fill:#fed8a5;fill-rule:nonzero;"/><path d="M42.123,36.633c-0.003,-0.006 -0.008,-0.013 -0.013,-0.021l0.013,0.021Z" style="fill:#ffe6b8;fill-rule:nonzero;"/><path d="M42.133,36.651c0,-0.002 -0.002,-0.004 -0.004,-0.007l0.004,0.007Z" style="fill:#ffe6b8;fill-rule:nonzero;"/><path d="M42.135,36.654c0,0 0,-0.001 0,-0.001l0,0.001Z" style="fill:#ffe6b8;fill-rule:nonzero;"/><path d="M40.703,34.242l0.001,0.002c0,-0.001 -0.001,-0.002 -0.001,-0.002Z" style="fill:#ffe6b8;fill-rule:nonzero;"/><path d="M41.625,35.794c-0.048,-0.081 -0.101,-0.169 -0.158,-0.266l0.158,0.266Z" style="fill:#ffe6b8;fill-rule:nonzero;"/><path d="M42.093,36.584c-0.007,-0.012 -0.015,-0.027 -0.025,-0.043l0.025,0.043Z" style="fill:#ffe6b8;fill-rule:nonzero;"/><path d="M41.81,36.107c-0.032,-0.055 -0.068,-0.116 -0.108,-0.182l0.108,0.182Z" style="fill:#ffe6b8;fill-rule:nonzero;"/><path d="M41.382,35.385c-0.069,-0.116 -0.144,-0.242 -0.226,-0.38l0.226,0.38Z" style="fill:#ffe6b8;fill-rule:nonzero;"/><path d="M41.945,36.334c-0.021,-0.036 -0.045,-0.076 -0.071,-0.12l0.071,0.12Z" style="fill:#ffe6b8;fill-rule:nonzero;"/><path d="M41.077,34.871c-0.035,-0.059 -0.071,-0.12 -0.109,-0.182l0.109,0.182Z" style="fill:#ffe6b8;fill-rule:nonzero;"/><path d="M42.037,36.489c-0.013,-0.022 -0.028,-0.048 -0.045,-0.076l0.045,0.076Z" style="fill:#ffe6b8;fill-rule:nonzero;"/><path d="M49.999,38.134l-7.864,-1.48c0,0 -1.776,1.282 -1.875,4.835c-0.055,1.955 -0.437,3.224 -0.771,3.969c-0.291,0.652 -0.459,1.35 -0.501,2.06c0.001,3.715 1.08,7.349 3.107,10.462l1.614,2.481l0.02,-0.085c0.483,-2.033 2.298,-3.468 4.388,-3.468l1.883,0l0,-18.774l-0.001,0Z" style="fill:#ffe6b8;fill-rule:nonzero;"/><path d="M40.703,34.242c0,0 0.001,0.001 0.001,0.002l0.264,0.445c0.038,0.062 0.074,0.123 0.109,0.182l0.079,0.134c0.082,0.138 0.157,0.264 0.226,0.38l0.085,0.143c0.057,0.097 0.11,0.185 0.158,0.266l0.077,0.131c0.04,0.066 0.076,0.127 0.108,0.182l0.064,0.107c0.026,0.044 0.05,0.084 0.071,0.12l0.047,0.079c0.017,0.028 0.032,0.054 0.045,0.076l0.031,0.052c0.01,0.016 0.018,0.031 0.025,0.043l0.017,0.028c0.005,0.008 0.01,0.015 0.013,0.021l0.006,0.011c0.002,0.003 0.004,0.005 0.004,0.007l0.002,0.003l7.864,1.48l0,-10.165c0,0 -1.482,0.147 -3.432,0.902c-1.972,0.762 -4.422,2.144 -6.307,4.624l0.261,0.441c0.063,0.105 0.124,0.208 0.182,0.306Z" style="fill:#2b1b15;fill-rule:nonzero;"/><path d="M49.999,27.969l0,10.165l0.001,0l7.864,-1.48c0,0 0,-0.001 0,-0.001l0.002,-0.002c0,-0.002 0.002,-0.004 0.004,-0.007l0.007,-0.011c0.003,-0.006 0.007,-0.013 0.011,-0.021l0.018,-0.029c0.007,-0.012 0.015,-0.026 0.025,-0.041l0.033,-0.057c0.012,-0.02 0.026,-0.043 0.04,-0.068l0.057,-0.095c0.018,-0.03 0.037,-0.063 0.058,-0.098l0.088,-0.149c0.024,-0.039 0.049,-0.082 0.076,-0.127l0.132,-0.222c0.06,-0.101 0.127,-0.215 0.202,-0.341l0.078,-0.132c0.07,-0.117 0.145,-0.244 0.227,-0.382l0.304,-0.511c0.023,-0.039 0.046,-0.078 0.07,-0.118c0.064,-0.109 0.132,-0.222 0.202,-0.34l0.241,-0.407c-1.885,-2.48 -4.336,-3.862 -6.307,-4.624c-1.944,-0.752 -3.421,-0.9 -3.432,-0.902l-0.001,0Z" style="fill:#1f0e07;fill-rule:nonzero;"/><path d="M59.296,34.242l-0.07,0.118l-0.304,0.511l-0.227,0.382l-0.078,0.132l-0.202,0.341l-0.132,0.222l-0.076,0.127l-0.088,0.149l-0.058,0.098l-0.057,0.095l-0.04,0.068l-0.033,0.057l-0.025,0.041l-0.018,0.029l-0.011,0.021l-0.007,0.011l-0.004,0.007l-0.002,0.002l0,0.001c0,0 1.776,1.282 1.875,4.835c0.054,1.955 0.437,3.224 0.771,3.969c0.293,0.655 0.46,1.357 0.501,2.071c-0.003,3.711 -1.081,7.341 -3.106,10.451l-1.614,2.481l-0.02,-0.085c-0.483,-2.033 -2.298,-3.468 -4.388,-3.468l-1.883,0l0,4.443l3.06,0c0.326,0 0.591,0.265 0.591,0.591c0,0.327 -0.265,0.591 -0.591,0.591l-3.06,0l0,12.656l3.532,-3.532c1.469,-1.468 2.621,-3.222 3.386,-5.152l0.21,-0.53l0.001,-0.002c0.025,-0.028 0.052,-0.057 0.079,-0.087c0.439,-0.489 0.863,-0.965 1.269,-1.44c2.33,-2.722 4.029,-5.364 4.101,-9.651c0.002,-0.095 0.004,-0.188 0.004,-0.285l0,-6.997l0,0l0,-5.141l0,-2.536c0,-1.971 -0.474,-4.219 -2.843,-6.341l-0.241,0.407l-0.202,0.34Z" style="fill:#2b1b15;fill-rule:nonzero;"/><path d="M42.871,65.973l0.211,0.532c0.765,1.93 1.917,3.684 3.386,5.152l3.531,3.532l0.001,0l0,-6.069l0,-1.044l0,-5.543l-0.001,0l-3.06,0c-0.326,0 -0.591,-0.264 -0.591,-0.591c0,-0.326 0.265,-0.591 0.591,-0.591l3.061,0l0,-4.443l-1.883,0c-2.09,0 -3.905,1.435 -4.388,3.468l-0.02,0.085l-1.614,-2.481c-2.027,-3.113 -3.106,-6.747 -3.107,-10.462c0.042,-0.71 0.21,-1.408 0.501,-2.06c0.334,-0.745 0.716,-2.014 0.771,-3.969c0.099,-3.553 1.875,-4.835 1.875,-4.835l0,-0.001l-0.002,-0.002l-0.004,-0.007l-0.006,-0.011l-0.013,-0.021l-0.017,-0.028l-0.025,-0.043l-0.031,-0.052l-0.045,-0.076l-0.047,-0.079l-0.071,-0.12l-0.064,-0.107l-0.108,-0.182l-0.077,-0.131l-0.158,-0.266l-0.085,-0.143l-0.226,-0.38l-0.079,-0.134l-0.109,-0.182l-0.264,-0.445l-0.001,-0.002l-0.182,-0.306l-0.261,-0.441c-2.368,2.122 -2.843,4.37 -2.843,6.341l0,10.756c0,0 0.001,0 0.001,0l0,3.918c0,0.117 0.003,0.231 0.005,0.346c0.1,4.896 2.332,7.642 5.195,10.835c0.058,0.065 0.116,0.13 0.175,0.195c0.026,0.03 0.053,0.059 0.078,0.087Z" style="fill:#49352f;fill-rule:nonzero;"/><path d="M42.618,71.343l0,-3.266l0,0l-0.001,0c-0.214,0.055 -0.427,0.113 -0.638,0.174c-0.056,0.016 -0.111,0.032 -0.166,0.048c-0.209,0.062 -0.418,0.126 -0.626,0.193c-0.016,0.005 -0.031,0.011 -0.047,0.016c-0.206,0.068 -0.411,0.139 -0.614,0.212c-0.031,0.011 -0.062,0.022 -0.093,0.033c-0.221,0.081 -0.44,0.164 -0.657,0.25l0,30.997l2.842,0l0,-28.657Z" style="fill:#9fcade;fill-rule:nonzero;"/><path d="M59.532,68.74c-0.005,-0.002 -0.01,-0.004 -0.015,-0.005c-0.206,-0.075 -0.413,-0.146 -0.622,-0.215c-0.053,-0.017 -0.106,-0.034 -0.159,-0.051c-0.174,-0.056 -0.349,-0.11 -0.524,-0.162c-0.051,-0.015 -0.101,-0.03 -0.152,-0.045c-0.224,-0.065 -0.45,-0.127 -0.677,-0.185l-0.001,0l0,31.923l2.842,0l0,-30.997c-0.229,-0.091 -0.459,-0.179 -0.692,-0.263Z" style="fill:#7eafc6;fill-rule:nonzero;"/><path d="M46.939,61.351c-0.326,0 -0.591,0.265 -0.591,0.591c0,0.327 0.265,0.591 0.591,0.591l3.06,0l0,-1.182l-3.06,0Z" style="fill:#ffe6b8;fill-rule:nonzero;"/><path d="M53.651,61.942c0,-0.326 -0.265,-0.591 -0.591,-0.591l-3.06,0l-0.001,0l0,1.182l3.061,0c0.326,0 0.591,-0.264 0.591,-0.591Z" style="fill:#fed8a5;fill-rule:nonzero;"/></svg>