<?xml version="1.0" encoding="UTF-8" standalone="no"?><!DOCTYPE svg PUBLIC "-//W3C//DTD SVG 1.1//EN" "http://www.w3.org/Graphics/SVG/1.1/DTD/svg11.dtd"><svg width="100%" height="100%" viewBox="0 0 100 100" version="1.1" xmlns="http://www.w3.org/2000/svg" xmlns:xlink="http://www.w3.org/1999/xlink" xml:space="preserve" xmlns:serif="http://www.serif.com/" style="fill-rule:evenodd;clip-rule:evenodd;stroke-linejoin:round;stroke-miterlimit:2;"><circle cx="50" cy="50" r="50" style="fill:#008feb;"/><path d="M50,99.878l0,0.122l0.673,-2.613l-0.673,2.491Z" style="fill:#231f20;fill-rule:nonzero;"/><path d="M57.382,68.076l0,0.003l6.269,15.593l-5.97,0l2.813,3.025l-10.494,13.303l25,0l0,-9.201c0,-10.939 -7.488,-20.128 -17.618,-22.723Z" style="fill:#231f20;fill-rule:nonzero;"/><path d="M49.967,100l0.033,0l-0.025,-0.031l-0.008,0.031Z" style="fill:#383739;fill-rule:nonzero;"/><path d="M50,99.879l0,0.121l0,-0.122l0,0.001Z" style="fill:#383739;fill-rule:nonzero;"/><path d="M39.506,86.697l2.813,-3.025l-5.97,0l6.27,-15.596c-10.13,2.595 -17.619,11.784 -17.619,22.723l0,9.201l24.94,0l0,-0.076l-10.434,-13.227Z" style="fill:#383739;fill-rule:nonzero;"/><path d="M49.94,100l0.027,0l-0.014,-0.051l-0.013,0.051Z" style="fill:#383739;fill-rule:nonzero;"/><path d="M42.619,68.076l0,3.265l0,-3.265Z" style="fill:#383739;fill-rule:nonzero;"/><path d="M49.984,99.937l0.016,0.063l-0.016,-0.063Z" style="fill:#383739;fill-rule:nonzero;"/><path d="M49.967,75.546c0.011,-0.004 0.022,-0.008 0.034,-0.012l0,-6.413c-5.064,0 -4.933,-0.702 -7.208,-3.235c-0.058,-0.065 -0.116,-0.129 -0.174,-0.194l0,5.649c0,0 2.784,2.685 7.348,4.205Z" style="fill:#e9cc9c;fill-rule:nonzero;"/><path d="M50.001,69.121l0,6.413c4.544,-1.521 7.314,-4.193 7.314,-4.193l0.039,0.106l0.027,-0.106l0,-3.265l0.001,0.003l0,-0.003l0,-2.383c-0.057,0.063 -0.115,0.128 -0.174,0.193c-2.275,2.533 -2.144,3.235 -7.207,3.235Z" style="fill:#ebc38e;fill-rule:nonzero;"/><path d="M53.222,79.96l-1.496,1.151l1.005,8.052l-2.732,10.605l0.001,0.111l0,-0.001l0.673,-2.491l5.341,-20.735l-2.39,3.828c0,0 -0.148,-0.189 -0.402,-0.52Z" style="fill:#cfd0d2;fill-rule:nonzero;"/><path d="M49.984,99.937l-0.014,-0.054l0.014,0.054Z" style="fill:#cfd0d2;fill-rule:nonzero;"/><path d="M49.97,82.812l0.003,-1.701l-0.006,0l0.003,1.701Z" style="fill:#cfd0d2;fill-rule:nonzero;"/><path d="M49.967,99.958l0,0.042l0.008,-0.031l-0.008,-0.011Z" style="fill:#cfd0d2;fill-rule:nonzero;"/><path d="M49.955,99.943l-0.002,0.006l0.014,0.051l0,-0.042l-0.012,-0.015Z" style="fill:#e8e9ea;fill-rule:nonzero;"/><path d="M48.214,81.111l-1.502,-1.151c-0.254,0.331 -0.402,0.52 -0.402,0.52l-2.277,-3.648l5.907,22.936l-2.731,-10.605l1.005,-8.052Z" style="fill:#e8e9ea;fill-rule:nonzero;"/><path d="M50.001,69.121l0,-29.753l0,-1.391l-0.001,0c-4.213,-0.071 -8.205,-0.277 -8.205,-0.277l-0.058,0c0.045,0.949 -0.05,2.564 -0.972,3.923c-1.407,2.072 -1.851,2.517 -1.851,2.517c0,0 0.222,2.072 0,3.626c-0.125,0.879 -0.866,1.355 -1.486,1.604l0,5.486l-0.005,0c0.101,4.896 2.333,7.643 5.196,10.836c0.058,0.065 0.116,0.129 0.174,0.194c2.275,2.533 2.144,3.235 7.208,3.235Z" style="fill:#ffe6b8;fill-rule:nonzero;"/><path d="M37.428,46.328l0,3.042c0.62,-0.249 1.361,-0.725 1.486,-1.604c0.222,-1.554 0,-3.626 0,-3.626c0,0 0.444,-0.445 1.851,-2.517c0.922,-1.359 1.017,-2.974 0.972,-3.923l0.058,0c0,0 3.992,0.206 8.205,0.277l0,-10.191c-0.641,-0.051 -1.326,-0.077 -2.062,-0.077c-9.477,0 -10.51,9.916 -10.51,9.917l0,0c0,0 -0.808,0.814 -0.882,4.145c-0.033,1.465 -0.037,3.159 -0.031,4.597c0.157,-0.023 0.317,-0.04 0.48,-0.04l0.433,0Z" style="fill:#383739;fill-rule:nonzero;"/><path d="M62.376,46.344l0,2.97c-0.629,-0.242 -1.406,-0.72 -1.535,-1.622c-0.222,-1.554 0,-3.626 0,-3.626c0,0 -0.444,-0.445 -1.85,-2.517c-0.87,-1.282 -1.003,-2.79 -0.979,-3.755c-1.851,0.215 -4.987,0.234 -8.011,0.183l0,31.144c5.063,0 4.932,-0.702 7.207,-3.235c0.059,-0.065 0.117,-0.13 0.174,-0.193c2.861,-3.192 5.093,-5.936 5.196,-10.828c1.046,-0.066 1.999,-0.643 2.541,-1.551l0.433,-0.724c0.295,-0.495 0.451,-1.061 0.451,-1.637l0,-1.415c0,-1.628 -1.219,-2.969 -2.793,-3.166c-0.132,-0.017 -0.265,-0.028 -0.401,-0.028l-0.433,0Z" style="fill:#fed8a5;fill-rule:nonzero;"/><path d="M37.428,49.37l0,-3.042l-0.433,0c-0.163,0 -0.323,0.017 -0.48,0.04c-1.535,0.233 -2.714,1.554 -2.714,3.154l0,1.416c0,0.576 0.156,1.142 0.452,1.637l0.432,0.724c0.576,0.965 1.616,1.555 2.738,1.557l0.005,0l0,-5.486Z" style="fill:#fed8a5;fill-rule:nonzero;"/><path d="M46.712,79.96l3.255,-4.414c-4.564,-1.52 -7.348,-4.205 -7.348,-4.205l1.414,5.491l2.277,3.648c0,0 0.148,-0.189 0.402,-0.52Z" style="fill:#fff;fill-rule:nonzero;"/><path d="M50.001,75.534c-0.012,0.004 -0.023,0.008 -0.034,0.012l3.255,4.414c0.254,0.331 0.402,0.52 0.402,0.52l2.39,-3.828l1.34,-5.205l-0.039,-0.106c0,0 -2.77,2.672 -7.314,4.193Z" style="fill:#e8e9ea;fill-rule:nonzero;"/><path d="M42.319,83.672l-2.813,3.025l10.434,13.227l0,-0.156l-5.907,-22.936l-1.414,-5.491l0,-3.265l-6.27,15.596l5.97,0Z" style="fill:#403f41;fill-rule:nonzero;"/><path d="M49.97,99.883l-0.015,0.06l0.012,0.015l0.008,0.011l0.025,0.031l-0.016,-0.063l-0.014,-0.054Z" style="fill:#403f41;fill-rule:nonzero;"/><path d="M57.681,83.672l5.97,0l-6.269,-15.593l-0.001,-0.003l0,3.265l-0.027,0.106l-1.34,5.205l-5.341,20.735l-0.673,2.613l10.494,-13.303l-2.813,-3.025Z" style="fill:#383739;fill-rule:nonzero;"/><path d="M46.712,79.96l1.502,1.151l1.753,0l0,-5.565l-3.255,4.414Z" style="fill:#ad874d;fill-rule:nonzero;"/><path d="M53.222,79.96l-3.255,-4.414l0,5.565l1.759,0l1.496,-1.151Z" style="fill:#947542;fill-rule:nonzero;"/><path d="M49.999,99.768l-0.029,0.115l0.014,0.054l0.016,0.063l0,-0.121l-0.001,-0.111Z" style="fill:#cda665;fill-rule:nonzero;"/><path d="M48.214,81.111l-1.005,8.052l2.731,10.605l0.03,-16.956l-0.003,-1.701l-1.753,0Z" style="fill:#cda665;fill-rule:nonzero;"/><path d="M49.955,99.943l0.015,-0.06l0.029,-0.115l2.732,-10.605l-1.005,-8.052l-1.753,0l-0.003,1.701l-0.03,16.956l0,0.156l0,0.076l0.013,-0.051l0.002,-0.006Z" style="fill:#ad874d;fill-rule:nonzero;"/><path d="M50,37.977l0.001,0c3.024,0.051 6.16,0.032 8.011,-0.183c-0.024,0.965 0.109,2.473 0.979,3.755c1.406,2.072 1.85,2.517 1.85,2.517c0,0 -0.222,2.072 0,3.626c0.129,0.902 0.906,1.38 1.535,1.622l0,-2.97l0.433,0c0.136,0 0.269,0.011 0.401,0.028l0,-4.675c0,-2.695 -1.132,-4.481 -1.898,-5.38c2.078,-1.856 3.194,-4.834 3.194,-4.834c0,0 -0.404,0.424 -2.522,0.519c-3.07,0.136 -4.429,-3.627 -11.984,-4.216l0,10.191Z" style="fill:#231f20;fill-rule:nonzero;"/></svg>