<?xml version="1.0" encoding="UTF-8" standalone="no"?><!DOCTYPE svg PUBLIC "-//W3C//DTD SVG 1.1//EN" "http://www.w3.org/Graphics/SVG/1.1/DTD/svg11.dtd"><svg width="100%" height="100%" viewBox="0 0 100 100" version="1.1" xmlns="http://www.w3.org/2000/svg" xmlns:xlink="http://www.w3.org/1999/xlink" xml:space="preserve" xmlns:serif="http://www.serif.com/" style="fill-rule:evenodd;clip-rule:evenodd;stroke-linejoin:round;stroke-miterlimit:2;"><circle cx="50" cy="50" r="50" style="fill:#008fff;"/><g><path d="M49.96,97.467c-0.694,0 -1.258,-0.564 -1.258,-1.258c0,-0.694 0.564,-1.258 1.258,-1.258c0.013,0 0.027,0 0.04,0.001l0,-8.766c-0.013,0.002 -0.027,0.002 -0.04,0.002c-0.694,0 -1.258,-0.563 -1.258,-1.259c0,-0.694 0.564,-1.258 1.258,-1.258c0.013,0 0.027,0 0.04,0.002l0,-2.562c-0.007,0.021 -1.011,2.901 -5.042,2.561c-3.07,-0.259 -6.014,-5.727 -7.11,-10.028c-0.058,-0.019 -0.116,-0.037 -0.174,-0.058c-1.113,-0.398 -2.169,-0.961 -3.131,-1.671c-5.788,4.271 -9.543,11.139 -9.543,18.884l0,9.201l25,0l0,-2.534c-0.013,0.001 -0.027,0.001 -0.04,0.001Z" style="fill:#e3b1d2;fill-rule:nonzero;"/><path d="M65.458,71.915c-0.963,0.71 -2.018,1.273 -3.132,1.671c-0.057,0.021 -0.116,0.039 -0.174,0.058c-1.096,4.302 -4.04,9.769 -7.109,10.028c-4.046,0.341 -5.043,-2.562 -5.043,-2.562l0,0.001l0,2.562c0.676,0.02 1.218,0.576 1.218,1.256c0,0.683 -0.542,1.236 -1.218,1.257l0,8.766c0.676,0.021 1.218,0.576 1.218,1.257c0,0.681 -0.542,1.236 -1.218,1.257l0,2.534l25,0l0,-9.201c0,-7.745 -3.755,-14.612 -9.542,-18.884Z" style="fill:#d499c4;fill-rule:nonzero;"/><path d="M43.664,74.301l-1.87,0c-1.353,0 -2.684,-0.227 -3.946,-0.657c1.096,4.301 4.04,9.769 7.11,10.028c4.031,0.34 5.035,-2.54 5.042,-2.561l0,-0.001c-2.762,-1.912 -4.998,-4.113 -6.336,-6.809Z" style="fill:#fff;fill-rule:nonzero;"/><path d="M56.337,74.301c-1.338,2.696 -3.575,4.897 -6.337,6.809c0,0 0.997,2.903 5.043,2.562c3.069,-0.259 6.013,-5.726 7.109,-10.028c-1.261,0.43 -2.592,0.657 -3.945,0.657l-1.87,0Z" style="fill:#cfd0d2;fill-rule:nonzero;"/><path d="M50,66.456c-1.662,0 -4.591,-0.973 -7.207,-2.981c-0.058,-0.045 -0.116,-0.091 -0.175,-0.137l0,0.188c0.688,0.919 1.085,2.034 1.091,3.197l0,7.578l-0.045,0c1.338,2.696 3.574,4.897 6.336,6.809l0,-14.654Z" style="fill:#e7b995;fill-rule:nonzero;"/><path d="M56.337,74.301l-0.046,0l0,-7.543c0,-0.012 0.001,-0.023 0.001,-0.035c0.006,-1.163 0.402,-2.278 1.09,-3.196l0,-0.189c-2.658,2.101 -5.682,3.118 -7.382,3.118l0,14.654c2.762,-1.912 4.999,-4.113 6.337,-6.809Z" style="fill:#e8ac85;fill-rule:nonzero;"/><path d="M57.382,63.338c0.296,-0.234 0.587,-0.482 0.872,-0.743c0.035,-0.032 0.07,-0.063 0.104,-0.095c0.047,-0.044 0.093,-0.089 0.139,-0.133c0.074,-0.071 0.147,-0.142 0.22,-0.215c0.033,-0.033 0.066,-0.065 0.099,-0.099c0.044,-0.044 0.087,-0.09 0.13,-0.135c0.033,-0.034 0.065,-0.067 0.096,-0.101c0.043,-0.045 0.086,-0.092 0.129,-0.139c0.031,-0.034 0.062,-0.068 0.094,-0.103c0.042,-0.047 0.083,-0.094 0.125,-0.142c0.031,-0.035 0.062,-0.07 0.092,-0.106c0.042,-0.048 0.083,-0.098 0.124,-0.147c0.029,-0.036 0.059,-0.071 0.089,-0.107c0.04,-0.05 0.08,-0.1 0.121,-0.151c0.029,-0.037 0.058,-0.073 0.087,-0.111c0.039,-0.051 0.078,-0.102 0.117,-0.154c0.029,-0.037 0.057,-0.075 0.085,-0.113c0.038,-0.052 0.077,-0.105 0.115,-0.158c0.027,-0.038 0.054,-0.077 0.081,-0.115c0.038,-0.054 0.075,-0.108 0.112,-0.162c0.026,-0.039 0.052,-0.079 0.079,-0.118c0.036,-0.055 0.073,-0.111 0.109,-0.167c0.024,-0.039 0.049,-0.078 0.074,-0.118c0.035,-0.057 0.071,-0.114 0.106,-0.172c0.024,-0.04 0.047,-0.079 0.071,-0.119c0.034,-0.059 0.069,-0.118 0.103,-0.178c0.022,-0.039 0.044,-0.078 0.066,-0.117c0.034,-0.062 0.068,-0.124 0.101,-0.187c0.019,-0.034 0.037,-0.07 0.055,-0.106c0.036,-0.067 0.071,-0.135 0.105,-0.203c0.001,-0.003 0.003,-0.005 0.004,-0.008c0.083,-0.167 0.161,-0.337 0.238,-0.51c0.015,-0.036 0.032,-0.071 0.047,-0.107c0.027,-0.061 0.052,-0.124 0.077,-0.186c0.02,-0.048 0.04,-0.096 0.059,-0.144c0.024,-0.06 0.046,-0.12 0.069,-0.18c0.02,-0.053 0.04,-0.105 0.059,-0.158c0.021,-0.059 0.042,-0.118 0.062,-0.178c0.019,-0.055 0.039,-0.11 0.057,-0.166c0.019,-0.059 0.038,-0.118 0.056,-0.177c0.018,-0.058 0.036,-0.116 0.054,-0.174c0.017,-0.059 0.034,-0.118 0.05,-0.178c0.017,-0.06 0.034,-0.12 0.05,-0.18c0.015,-0.059 0.03,-0.119 0.045,-0.178c0.015,-0.062 0.03,-0.124 0.045,-0.187c0.013,-0.059 0.027,-0.119 0.04,-0.179c0.013,-0.064 0.027,-0.128 0.04,-0.193c0.011,-0.06 0.023,-0.119 0.034,-0.179c0.013,-0.067 0.024,-0.134 0.035,-0.201c0.01,-0.059 0.02,-0.118 0.029,-0.178c0.011,-0.069 0.02,-0.14 0.03,-0.21c0.008,-0.058 0.016,-0.117 0.023,-0.176c0.009,-0.073 0.017,-0.146 0.024,-0.22c0.006,-0.058 0.013,-0.115 0.018,-0.173c0.007,-0.078 0.013,-0.157 0.019,-0.236c0.004,-0.054 0.008,-0.108 0.012,-0.163c0.005,-0.089 0.008,-0.18 0.012,-0.27c0.002,-0.045 0.005,-0.09 0.006,-0.136c0.004,-0.137 0.006,-0.274 0.006,-0.413l0,-3.701l-0.007,0l0,-3.165c-0.126,-0.329 -1.944,-4.875 -6.615,-5.161c-3.704,-0.226 -5.957,-2.957 -5.96,-2.96l0,28.457c1.7,0 4.724,-1.017 7.382,-3.118Z" style="fill:#fbbd9a;fill-rule:nonzero;"/><path d="M42.793,63.475c2.616,2.008 5.545,2.981 7.207,2.981l0,-28.457l0,0c0,0 -1.589,4.589 -4.55,6.291c-3.217,1.85 -8.029,1.85 -8.032,1.85l0,6.846c0,0.142 0.003,0.284 0.007,0.424c0.002,0.046 0.004,0.092 0.006,0.137c0.004,0.094 0.008,0.188 0.014,0.281c0.003,0.054 0.008,0.107 0.012,0.161c0.006,0.084 0.012,0.167 0.02,0.25c0.005,0.056 0.011,0.112 0.017,0.167c0.009,0.08 0.018,0.16 0.028,0.239c0.007,0.056 0.014,0.111 0.022,0.166c0.011,0.078 0.022,0.157 0.035,0.234c0.008,0.054 0.017,0.108 0.026,0.162c0.013,0.079 0.028,0.157 0.043,0.235c0.01,0.051 0.019,0.102 0.029,0.152c0.017,0.084 0.036,0.167 0.055,0.25c0.009,0.043 0.018,0.087 0.029,0.13c0.025,0.108 0.053,0.216 0.081,0.322c0.004,0.017 0.008,0.034 0.013,0.05c0.033,0.123 0.068,0.245 0.104,0.366c0.011,0.037 0.024,0.073 0.035,0.109c0.026,0.084 0.053,0.167 0.08,0.249c0.016,0.045 0.032,0.09 0.048,0.135c0.025,0.073 0.05,0.145 0.077,0.217c0.018,0.048 0.036,0.095 0.054,0.142c0.027,0.069 0.053,0.137 0.081,0.204c0.019,0.048 0.039,0.095 0.058,0.142c0.029,0.067 0.057,0.133 0.086,0.199c0.021,0.046 0.041,0.092 0.062,0.138c0.03,0.066 0.061,0.132 0.093,0.198c0.021,0.044 0.041,0.087 0.062,0.131c0.035,0.069 0.07,0.138 0.105,0.207c0.02,0.038 0.039,0.076 0.059,0.114c0.044,0.083 0.09,0.166 0.135,0.249c0.013,0.021 0.024,0.043 0.036,0.065c0.059,0.103 0.118,0.205 0.179,0.307c0.017,0.027 0.034,0.054 0.051,0.082c0.045,0.073 0.09,0.146 0.136,0.218c0.024,0.037 0.048,0.073 0.072,0.11c0.04,0.062 0.081,0.123 0.122,0.184c0.026,0.039 0.054,0.078 0.08,0.117c0.04,0.057 0.08,0.114 0.121,0.17c0.028,0.04 0.057,0.079 0.085,0.118c0.041,0.055 0.082,0.11 0.123,0.164c0.029,0.039 0.058,0.077 0.087,0.115c0.042,0.054 0.086,0.109 0.129,0.163c0.028,0.036 0.057,0.072 0.086,0.108c0.046,0.056 0.093,0.111 0.139,0.167c0.027,0.032 0.054,0.064 0.081,0.096c0.056,0.065 0.112,0.128 0.168,0.191c0.019,0.022 0.038,0.044 0.057,0.066c0.076,0.084 0.153,0.168 0.23,0.25c0.018,0.018 0.036,0.036 0.054,0.055c0.06,0.063 0.12,0.126 0.181,0.187c0.028,0.029 0.058,0.058 0.086,0.086c0.051,0.051 0.102,0.102 0.153,0.151c0.032,0.031 0.065,0.062 0.097,0.092c0.048,0.047 0.097,0.093 0.146,0.138c0.034,0.032 0.068,0.062 0.102,0.093c0.269,0.245 0.544,0.478 0.823,0.699c0.059,0.046 0.117,0.092 0.175,0.137Z" style="fill:#fccba8;fill-rule:nonzero;"/><path d="M37.418,46.14c0.003,0 4.815,0 8.032,-1.85c2.961,-1.702 4.55,-6.291 4.55,-6.291l0,-2.974l0,-6.204c-8.154,0 -14.764,6.61 -14.764,14.764l0,1.851l2.182,0l0,0.704Z" style="fill:#4b2c2d;fill-rule:nonzero;"/><path d="M50,37.999l0,0c0.003,0.003 2.256,2.734 5.96,2.96c4.671,0.286 6.489,4.832 6.615,5.161l0,-1.003l2.189,0l0,-1.532c0,-8.154 -6.61,-14.764 -14.764,-14.764l0,9.178Z" style="fill:#2c1111;fill-rule:nonzero;"/><path d="M37.848,73.644c1.262,0.43 2.593,0.657 3.946,0.657l1.915,0l0,-7.543l0,-0.035c-0.006,-1.163 -0.403,-2.278 -1.091,-3.197c-0.22,-0.294 -0.47,-0.569 -0.748,-0.818c-0.025,-0.022 -0.05,-0.046 -0.075,-0.069c-0.034,-0.031 -0.068,-0.061 -0.102,-0.093c-0.049,-0.045 -0.098,-0.091 -0.146,-0.138c-0.032,-0.03 -0.065,-0.061 -0.097,-0.092c-0.051,-0.049 -0.102,-0.1 -0.153,-0.151c-0.028,-0.028 -0.058,-0.057 -0.086,-0.086c-0.061,-0.061 -0.121,-0.124 -0.181,-0.187c-0.018,-0.019 -0.036,-0.037 -0.054,-0.055c-0.077,-0.082 -0.154,-0.166 -0.23,-0.25c-0.019,-0.022 -0.038,-0.044 -0.057,-0.066c-0.056,-0.063 -0.112,-0.126 -0.168,-0.191c-0.027,-0.032 -0.054,-0.064 -0.081,-0.096c-0.046,-0.056 -0.093,-0.111 -0.139,-0.167c-0.029,-0.036 -0.058,-0.072 -0.086,-0.108c-0.043,-0.054 -0.087,-0.109 -0.129,-0.163c-0.029,-0.038 -0.058,-0.076 -0.087,-0.115c-0.041,-0.054 -0.082,-0.109 -0.123,-0.164c-0.028,-0.039 -0.057,-0.078 -0.085,-0.118c-0.041,-0.056 -0.081,-0.113 -0.121,-0.17c-0.026,-0.039 -0.054,-0.078 -0.08,-0.117c-0.041,-0.061 -0.082,-0.122 -0.122,-0.184c-0.024,-0.037 -0.048,-0.073 -0.072,-0.11c-0.046,-0.072 -0.091,-0.145 -0.136,-0.218c-0.017,-0.028 -0.034,-0.055 -0.051,-0.082c-0.061,-0.102 -0.12,-0.204 -0.179,-0.307c-0.012,-0.022 -0.023,-0.044 -0.036,-0.065c-0.045,-0.083 -0.091,-0.166 -0.135,-0.249c-0.02,-0.038 -0.039,-0.076 -0.059,-0.114c-0.035,-0.069 -0.07,-0.138 -0.105,-0.207c-0.021,-0.044 -0.041,-0.087 -0.062,-0.131c-0.032,-0.066 -0.063,-0.132 -0.093,-0.198c-0.021,-0.046 -0.041,-0.092 -0.062,-0.138c-0.029,-0.066 -0.057,-0.132 -0.086,-0.199c-0.019,-0.047 -0.039,-0.094 -0.058,-0.142c-0.028,-0.067 -0.054,-0.135 -0.081,-0.204c-0.018,-0.047 -0.036,-0.094 -0.054,-0.142c-0.027,-0.072 -0.052,-0.144 -0.077,-0.217c-0.016,-0.045 -0.032,-0.09 -0.048,-0.135c-0.027,-0.082 -0.054,-0.165 -0.08,-0.249c-0.011,-0.036 -0.024,-0.072 -0.035,-0.109c-0.036,-0.121 -0.071,-0.243 -0.104,-0.366c-0.005,-0.016 -0.009,-0.033 -0.013,-0.05c-0.028,-0.106 -0.056,-0.214 -0.081,-0.322c-0.011,-0.043 -0.02,-0.087 -0.029,-0.13c-0.019,-0.083 -0.038,-0.166 -0.055,-0.25c-0.01,-0.05 -0.019,-0.101 -0.029,-0.152c-0.015,-0.078 -0.03,-0.156 -0.043,-0.235c-0.009,-0.054 -0.018,-0.108 -0.026,-0.162c-0.013,-0.077 -0.024,-0.156 -0.035,-0.234c-0.008,-0.055 -0.015,-0.11 -0.022,-0.166c-0.01,-0.079 -0.019,-0.159 -0.028,-0.239c-0.006,-0.055 -0.012,-0.111 -0.017,-0.167c-0.008,-0.083 -0.014,-0.166 -0.02,-0.25c-0.004,-0.054 -0.009,-0.107 -0.012,-0.161c-0.006,-0.093 -0.01,-0.187 -0.014,-0.281c-0.002,-0.045 -0.004,-0.091 -0.006,-0.137c-0.004,-0.14 -0.007,-0.282 -0.007,-0.424l0,-3.701l0,-2.96l0,-0.185l0,-0.704l-2.182,0l0,3.851c0,1.609 -0.593,3.168 -1.687,4.349c-0.555,0.599 -0.986,1.291 -1.276,2.038c-0.29,0.74 -0.441,1.533 -0.441,2.343l0,8.841c0,1.808 0.81,3.519 2.205,4.666c0.165,0.136 0.334,0.265 0.506,0.391c0.962,0.71 2.018,1.273 3.131,1.671c0.058,0.021 0.116,0.039 0.174,0.058Z" style="fill:#4b2c2d;fill-rule:nonzero;"/><path d="M62.575,46.12l0,3.165l0.007,0l0,3.701c0,0.139 -0.002,0.276 -0.006,0.413c-0.001,0.046 -0.004,0.091 -0.006,0.136c-0.004,0.09 -0.007,0.181 -0.012,0.27c-0.004,0.055 -0.008,0.109 -0.012,0.163c-0.006,0.079 -0.012,0.158 -0.019,0.236c-0.005,0.058 -0.012,0.115 -0.018,0.173c-0.007,0.074 -0.015,0.147 -0.024,0.22c-0.007,0.059 -0.015,0.118 -0.023,0.176c-0.01,0.07 -0.019,0.141 -0.03,0.21c-0.009,0.06 -0.019,0.119 -0.029,0.178c-0.011,0.067 -0.022,0.134 -0.035,0.201c-0.011,0.06 -0.023,0.119 -0.034,0.179c-0.013,0.065 -0.027,0.129 -0.04,0.193c-0.013,0.06 -0.027,0.12 -0.04,0.179c-0.015,0.063 -0.03,0.125 -0.045,0.187c-0.015,0.059 -0.03,0.119 -0.045,0.178c-0.016,0.06 -0.033,0.12 -0.05,0.18c-0.016,0.06 -0.033,0.119 -0.05,0.178c-0.018,0.058 -0.036,0.116 -0.054,0.174c-0.018,0.059 -0.037,0.118 -0.056,0.177c-0.018,0.056 -0.038,0.111 -0.057,0.166c-0.02,0.06 -0.041,0.119 -0.062,0.178c-0.019,0.053 -0.039,0.105 -0.059,0.158c-0.023,0.06 -0.045,0.12 -0.069,0.18c-0.019,0.048 -0.039,0.096 -0.059,0.144c-0.025,0.062 -0.05,0.125 -0.077,0.186c-0.015,0.036 -0.032,0.071 -0.047,0.107c-0.077,0.173 -0.155,0.343 -0.238,0.51c-0.001,0.003 -0.003,0.005 -0.004,0.008c-0.034,0.068 -0.069,0.136 -0.105,0.203c-0.018,0.036 -0.036,0.072 -0.055,0.106c-0.033,0.063 -0.067,0.125 -0.101,0.187c-0.022,0.039 -0.044,0.078 -0.066,0.117c-0.034,0.06 -0.069,0.119 -0.103,0.178c-0.024,0.04 -0.047,0.079 -0.071,0.119c-0.035,0.058 -0.071,0.115 -0.106,0.172c-0.025,0.04 -0.05,0.079 -0.074,0.118c-0.036,0.056 -0.073,0.112 -0.109,0.167c-0.027,0.039 -0.053,0.079 -0.079,0.118c-0.037,0.054 -0.074,0.108 -0.112,0.162c-0.027,0.038 -0.054,0.077 -0.081,0.115c-0.038,0.053 -0.077,0.106 -0.115,0.158c-0.028,0.038 -0.056,0.076 -0.085,0.113c-0.039,0.052 -0.078,0.103 -0.117,0.154c-0.029,0.038 -0.058,0.074 -0.087,0.111c-0.041,0.051 -0.081,0.101 -0.121,0.151c-0.03,0.036 -0.06,0.071 -0.089,0.107c-0.041,0.049 -0.082,0.099 -0.124,0.147c-0.03,0.036 -0.061,0.071 -0.092,0.106c-0.042,0.048 -0.083,0.095 -0.125,0.142c-0.032,0.035 -0.063,0.069 -0.094,0.103c-0.043,0.047 -0.086,0.094 -0.129,0.139c-0.031,0.034 -0.063,0.067 -0.096,0.101c-0.043,0.045 -0.086,0.091 -0.13,0.135c-0.033,0.034 -0.066,0.066 -0.099,0.099c-0.073,0.073 -0.146,0.144 -0.22,0.215c-0.046,0.044 -0.092,0.089 -0.139,0.133c-0.034,0.032 -0.069,0.063 -0.104,0.095c-0.041,0.038 -0.082,0.076 -0.123,0.113c-0.278,0.249 -0.528,0.524 -0.749,0.819c-0.688,0.918 -1.084,2.033 -1.09,3.196c0,0.012 -0.001,0.023 -0.001,0.035l0,7.543l1.916,0c1.353,0 2.684,-0.227 3.945,-0.657c0.058,-0.019 0.117,-0.037 0.174,-0.058c1.114,-0.398 2.169,-0.961 3.132,-1.671c0.171,-0.126 0.34,-0.255 0.505,-0.391c1.396,-1.147 2.206,-2.858 2.206,-4.666l0,-8.841c0,-0.81 -0.151,-1.603 -0.441,-2.343c-0.29,-0.747 -0.721,-1.439 -1.276,-2.038c-1.094,-1.181 -1.688,-2.74 -1.688,-4.349l0,-0.002l0,-4.168l-2.189,0l0,1.003Z" style="fill:#2c1111;fill-rule:nonzero;"/><path d="M48.702,84.929c0,0.696 0.564,1.259 1.258,1.259c0.013,0 0.027,0 0.04,-0.002l0,-2.513c-0.013,-0.002 -0.027,-0.002 -0.04,-0.002c-0.694,0 -1.258,0.564 -1.258,1.258Z" style="fill:#d499c4;fill-rule:nonzero;"/><path d="M51.218,84.929c0,-0.68 -0.542,-1.236 -1.218,-1.256l0,2.513c0.676,-0.021 1.218,-0.574 1.218,-1.257Z" style="fill:#ba649a;fill-rule:nonzero;"/><path d="M48.702,96.209c0,0.694 0.564,1.258 1.258,1.258c0.013,0 0.027,0 0.04,-0.001l0,-2.514c-0.013,-0.001 -0.027,-0.001 -0.04,-0.001c-0.694,0 -1.258,0.564 -1.258,1.258Z" style="fill:#d499c4;fill-rule:nonzero;"/><path d="M51.218,96.209c0,-0.681 -0.542,-1.236 -1.218,-1.257l0,2.514c0.676,-0.021 1.218,-0.576 1.218,-1.257Z" style="fill:#ba649a;fill-rule:nonzero;"/></g></svg>