<?xml version="1.0" encoding="UTF-8" standalone="no"?><!DOCTYPE svg PUBLIC "-//W3C//DTD SVG 1.1//EN" "http://www.w3.org/Graphics/SVG/1.1/DTD/svg11.dtd"><svg width="100%" height="100%" viewBox="0 0 100 100" version="1.1" xmlns="http://www.w3.org/2000/svg" xmlns:xlink="http://www.w3.org/1999/xlink" xml:space="preserve" xmlns:serif="http://www.serif.com/" style="fill-rule:evenodd;clip-rule:evenodd;stroke-linejoin:round;stroke-miterlimit:2;"><circle cx="50" cy="50" r="50" style="fill:#008fff;"/><path d="M50,83.229c-8.185,-3.951 -9.336,-11.739 -9.336,-11.739l0,-2.819l0.001,-0.001c0.302,-0.106 0.607,-0.206 0.914,-0.3l-0.006,0c-9.596,2.941 -16.573,11.869 -16.573,22.428l0,9.202l25.001,0l0,-16.772c0,0.001 -0.001,0.001 -0.001,0.001Z" style="fill:#da9340;fill-rule:nonzero;"/><path d="M57.382,68.079l0,-0.003l0,0.003Z" style="fill:#c47537;fill-rule:nonzero;"/><path d="M66.977,92.673l-10.686,0l0,-2.442l10.686,0l0,2.442Zm-8.55,-24.303l-0.006,0c0.307,0.094 0.612,0.194 0.914,0.3l0.001,0.001l0,2.819c0,0 -1.151,7.787 -9.335,11.738l0,16.772l24.999,0l0,-9.202c0,-10.559 -6.977,-19.487 -16.573,-22.428Z" style="fill:#c47537;fill-rule:nonzero;"/><path d="M42.618,71.34l0,-3.014c0,0 -0.395,0.042 -1.039,0.044c-0.307,0.094 -0.612,0.194 -0.914,0.3l-0.001,0.001l0,2.819c0,0 1.151,7.788 9.336,11.739l0,-2.119c-3.71,-2.57 -6.475,-5.66 -7.382,-9.77Z" style="fill:#c47537;fill-rule:nonzero;"/><path d="M57.382,68.079l0,3.261c-0.907,4.11 -3.672,7.2 -7.382,9.77l0,2.119c0,0 0.001,0 0.001,-0.001c8.184,-3.951 9.335,-11.738 9.335,-11.738l0,-2.819l-0.001,-0.001c-0.302,-0.106 -0.607,-0.206 -0.914,-0.3c-0.644,-0.002 -1.039,-0.044 -1.039,-0.044l0,-0.247Z" style="fill:#a6632d;fill-rule:nonzero;"/><path d="M42.618,68.326l0,-4.99c-2.804,-2.217 -5.2,-5.64 -5.2,-10.352l0,-6.661l0,-0.494l-2.255,0c0,0 -5.885,6.644 -4.279,15.106c1.289,6.789 8.061,7.442 10.689,7.435l0.006,0c0.644,-0.002 1.039,-0.044 1.039,-0.044Z" style="fill:#843d10;fill-rule:nonzero;"/><path d="M62.582,52.984c0,4.712 -2.395,8.136 -5.2,10.353l0,4.989c0,0 0.395,0.042 1.039,0.044l0.006,0c2.628,0.007 9.399,-0.646 10.688,-7.435c1.607,-8.462 -4.278,-15.106 -4.278,-15.106l-2.255,0l0,7.155Z" style="fill:#5d2600;fill-rule:nonzero;"/><path d="M50,81.11l0,-5.327l0,-9.328c-1.662,0 -4.592,-0.973 -7.207,-2.982c-0.059,-0.044 -0.117,-0.091 -0.175,-0.137l0,8.004c0.907,4.11 3.672,7.2 7.382,9.77Z" style="fill:#e9cc9c;fill-rule:nonzero;"/><path d="M57.382,63.337c-2.658,2.101 -5.682,3.118 -7.382,3.118l0,14.655c3.71,-2.57 6.475,-5.66 7.382,-9.77l0,-3.261l0,-0.003l0,-4.739Z" style="fill:#eaba8b;fill-rule:nonzero;"/><path d="M50,66.455" style="fill:#fed1a2;fill-rule:nonzero;"/><path d="M50,66.455c1.7,0 4.724,-1.017 7.382,-3.118c2.805,-2.217 5.2,-5.641 5.2,-10.353l0,-7.155c-2.884,0 -5.096,-3.453 -6.593,-6.929c-0.783,1.78 -1.955,3.683 -3.654,4.878l0,-2.051c0,0 -0.868,0.978 -2.335,1.978l0,22.75Z" style="fill:#fed1a2;fill-rule:nonzero;"/><path d="M50,66.455l0,-22.75c-1.538,1.049 -3.736,2.124 -6.291,2.124l-6.291,0l0,7.155c0,4.712 2.396,8.135 5.2,10.352c0.058,0.046 0.116,0.093 0.175,0.137c2.615,2.009 5.545,2.982 7.207,2.982Z" style="fill:#ffdfb4;fill-rule:nonzero;"/><path d="M57.382,34.406c0,0 -0.357,2.14 -1.393,4.494c1.497,3.476 3.709,6.929 6.593,6.929l2.255,0c0,-9.049 -2.864,-13.996 -8.024,-13.996c0.361,0.756 0.569,1.635 0.569,2.573Z" style="fill:#7a370b;fill-rule:nonzero;"/><path d="M43.709,45.829c2.555,0 4.753,-1.075 6.291,-2.124c1.467,-1 2.335,-1.978 2.335,-1.978l0,2.051c1.699,-1.195 2.871,-3.098 3.654,-4.878c1.036,-2.354 1.393,-4.494 1.393,-4.494c0,-0.938 -0.208,-1.817 -0.569,-2.573c-0.725,-1.515 -2.069,-2.534 -3.608,-2.534l-6.594,0c-6.323,0 -11.448,6.266 -11.448,13.996l0,2.534l8.546,0Z" style="fill:#b55723;fill-rule:nonzero;"/><rect x="56.291" y="90.231" width="10.686" height="2.442" style="fill:#a6632d;fill-rule:nonzero;"/></svg>